<svg width="15" height="16" viewBox="0 0 15 16" fill="none" xmlns="http://www.w3.org/2000/svg">
<path d="M7.5 15.5C11.6421 15.5 15 12.1421 15 8C15 3.85786 11.6421 0.5 7.5 0.5C3.35786 0.5 0 3.85786 0 8C0 12.1421 3.35786 15.5 7.5 15.5Z" fill="#F0F0F0"/>
<path d="M7.5 11.75C7.91421 11.75 8.25 11.4142 8.25 11C8.25 10.5858 7.91421 10.25 7.5 10.25C7.08579 10.25 6.75 10.5858 6.75 11C6.75 11.4142 7.08579 11.75 7.5 11.75Z" fill="#B7B7B7"/>
<path d="M7.5 8.75C7.30109 8.75 7.11032 8.67098 6.96967 8.53033C6.82902 8.38968 6.75 8.19891 6.75 8V5C6.75 4.80109 6.82902 4.61032 6.96967 4.46967C7.11032 4.32902 7.30109 4.25 7.5 4.25C7.69891 4.25 7.88968 4.32902 8.03033 4.46967C8.17098 4.61032 8.25 4.80109 8.25 5V8C8.25 8.19891 8.17098 8.38968 8.03033 8.53033C7.88968 8.67098 7.69891 8.75 7.5 8.75Z" fill="#B7B7B7"/>
</svg>
