<svg width="21" height="16" viewBox="0 0 21 16" fill="none" xmlns="http://www.w3.org/2000/svg">
<rect x="0.900391" width="19.2" height="15.2" rx="3.2" fill="#D9D9D9"/>
<path d="M10.5001 3.47168C8.13973 3.47168 6.21973 5.39222 6.21973 7.75263C6.21973 10.113 8.13973 12.0325 10.5001 12.0325C12.8605 12.0325 14.7805 10.1125 14.7805 7.75263C14.7805 5.39276 12.8605 3.47168 10.5001 3.47168ZM10.5001 11.2184C8.58881 11.2184 7.03329 9.66341 7.03329 7.75209C7.03329 5.84076 8.58827 4.2847 10.5001 4.2847C12.412 4.2847 13.967 5.84022 13.967 7.75209C13.967 9.66395 12.412 11.2184 10.5001 11.2184Z" fill="#F0F0F0"/>
<path d="M15.9288 2.0979C15.3387 2.0979 14.8604 2.57627 14.8604 3.16638C14.8604 3.75648 15.3387 4.23485 15.9288 4.23485C16.5189 4.23485 16.9973 3.75648 16.9973 3.16638C16.9973 2.57627 16.5189 2.0979 15.9288 2.0979Z" fill="#F0F0F0"/>
</svg>
