<svg width="26" height="26" viewBox="0 0 26 26" fill="none" xmlns="http://www.w3.org/2000/svg">
<path d="M8.812 13.6874C8.812 11.3747 10.6868 9.49991 12.9995 9.49991C15.3122 9.49991 17.187 11.3747 17.187 13.6874C17.187 16.0001 15.3122 17.8749 12.9995 17.8749C10.6868 17.8749 8.812 16.0001 8.812 13.6874Z" fill="#FF8B4C"/>
<path fill-rule="evenodd" clip-rule="evenodd" d="M11.3239 1.00006L14.6765 1.00006C15.2545 0.999557 15.7421 0.999129 16.2084 1.12458C16.6183 1.23484 17.0056 1.41624 17.3528 1.66051C17.7477 1.93841 18.0595 2.31319 18.4292 2.75752L20.09 4.75014L20.9192 4.75014C21.5816 4.75012 22.1456 4.75011 22.6086 4.78794C23.0951 4.82768 23.5683 4.91473 24.0207 5.14525C24.7028 5.49279 25.2574 6.04734 25.6049 6.72943C25.8354 7.18185 25.9225 7.6551 25.9622 8.14155C26 8.60458 26 9.16854 26 9.83086V19.4195C26 20.0818 26 20.6458 25.9622 21.1088C25.9225 21.5953 25.8354 22.0685 25.6049 22.5209C25.2574 23.203 24.7028 23.7576 24.0207 24.1051C23.5683 24.3356 23.0951 24.4227 22.6086 24.4624C22.1456 24.5003 21.5816 24.5002 20.9193 24.5002H5.08075C4.41843 24.5002 3.85442 24.5003 3.3914 24.4624C2.90495 24.4227 2.4317 24.3356 1.97929 24.1051C1.2972 23.7576 0.742645 23.203 0.395104 22.5209C0.164587 22.0685 0.0775444 21.5953 0.0377998 21.1088C-3.0729e-05 20.6458 -1.6265e-05 20.0818 7.16052e-07 19.4195V9.83091C-1.6265e-05 9.1686 -3.0729e-05 8.60457 0.0377998 8.14155C0.0775444 7.6551 0.164587 7.18185 0.395104 6.72943C0.742645 6.04734 1.2972 5.49279 1.97929 5.14525C2.4317 4.91473 2.90495 4.82768 3.3914 4.78794C3.85444 4.75011 4.41842 4.75012 5.08076 4.75014L5.91113 4.75014L7.57063 2.75824C7.94031 2.31374 8.25214 1.93881 8.64712 1.66079C8.99431 1.41642 9.38172 1.23495 9.7917 1.12463C10.2581 0.999129 10.7458 0.999556 11.3239 1.00006ZM12.9995 7.2499C9.44416 7.2499 6.562 10.1321 6.562 13.6874C6.562 17.2428 9.44416 20.1249 12.9995 20.1249C16.5548 20.1249 19.437 17.2428 19.437 13.6874C19.437 10.1321 16.5548 7.2499 12.9995 7.2499Z" fill="#FF8B4C"/>
</svg>
