<svg width="33" height="32" viewBox="0 0 33 32" fill="none" xmlns="http://www.w3.org/2000/svg">
<g clip-path="url(#clip0_1689_5656)">
<path d="M17.7003 20H15.3003V25.3336H17.7003V20Z" fill="#B7B7B7"/>
<path d="M24.2395 16.1959C23.2715 16.1959 22.3043 15.9295 21.3827 15.3967C19.0475 14.0463 17.4163 11.2015 17.4163 8.47915V7.56235L23.7987 5.81995H28.5027C29.6051 5.81995 30.5027 6.71755 30.5027 7.81995V9.26475C30.5027 11.8375 29.1923 14.1903 27.0835 15.4039C26.1667 15.9319 25.2035 16.1951 24.2403 16.1951L24.2395 16.1959ZM19.9035 9.37195C20.2043 10.9583 21.2571 12.5519 22.5843 13.3191C23.6795 13.9527 24.7907 13.9535 25.8859 13.3239C27.2531 12.5367 28.1027 10.9815 28.1027 9.26475V8.21995H24.1203L19.9035 9.37115V9.37195Z" fill="#D9D9D9"/>
<path d="M8.761 16.1959C7.7978 16.1959 6.8346 15.9319 5.917 15.4039C3.8082 14.1903 2.4978 11.8375 2.4978 9.26475V7.81995C2.4978 6.71755 3.3954 5.81995 4.4978 5.81995H9.2018L15.5842 7.56235V8.47915C15.5842 11.2015 13.953 14.0463 11.6178 15.3967C10.697 15.9295 9.729 16.1959 8.761 16.1959ZM4.8978 8.22075V9.26555C4.8978 10.9823 5.7474 12.5375 7.1146 13.3247C8.2106 13.9551 9.321 13.9535 10.4162 13.3199C11.7434 12.5527 12.7962 10.9591 13.097 9.37275L8.8802 8.22155H4.8978V8.22075Z" fill="#D9D9D9"/>
<path d="M26.1625 13.2704C26.1625 18.6584 21.7529 23.016 16.3457 22.932C11.0105 22.8488 6.83691 18.2584 6.83691 12.9232V4.26638C6.83691 3.38238 7.55291 2.66638 8.43691 2.66638H24.5625C25.4465 2.66638 26.1625 3.38238 26.1625 4.26638V13.2704Z" fill="#D9D9D9"/>
<path d="M22.368 29.7335H10.632C9.97685 29.7335 9.51445 29.0919 9.72165 28.4703L10.4624 26.2471C10.724 25.4631 11.4576 24.9343 12.284 24.9343H20.716C21.5424 24.9343 22.276 25.4631 22.5376 26.2471L23.2784 28.4703C23.4856 29.0919 23.0232 29.7335 22.368 29.7335Z" fill="#D9D9D9"/>
</g>
<defs>
<clipPath id="clip0_1689_5656">
<rect width="32" height="32" fill="white" transform="translate(0.5)"/>
</clipPath>
</defs>
</svg>
