<svg width="32" height="32" viewBox="0 0 32 32" fill="none" xmlns="http://www.w3.org/2000/svg">
<g clip-path="url(#clip0_1402_26503)">
<path d="M15.9998 2.65967C19.0003 2.65967 21.878 3.85141 23.9998 5.97314C26.1126 8.08605 27.2996 10.9519 27.2996 13.9399C27.2995 16.9278 26.1125 19.793 23.9998 21.9058L16.9197 29.0132C16.7958 29.138 16.6484 29.2375 16.4861 29.3052C16.3237 29.3728 16.1493 29.4077 15.9734 29.4077C15.7975 29.4077 15.6231 29.3728 15.4607 29.3052C15.2984 29.2376 15.151 29.138 15.0271 29.0132L7.99976 21.9731C5.87808 19.8515 4.68635 16.9736 4.68628 13.9731C4.68628 10.9727 5.87818 8.09485 7.99976 5.97314C10.1214 3.85147 12.9993 2.65973 15.9998 2.65967ZM16.0007 7.99951C13.0552 7.99951 10.6667 10.388 10.6667 13.3335C10.667 16.2788 13.0553 18.6665 16.0007 18.6665C18.9459 18.6662 21.3335 16.2787 21.3337 13.3335C21.3337 10.3881 18.946 7.99978 16.0007 7.99951Z" fill="#FF8B4C"/>
</g>
<defs>
<clipPath id="clip0_1402_26503">
<rect width="32" height="32" fill="white"/>
</clipPath>
</defs>
</svg>
