<svg width="26" height="26" viewBox="0 0 26 26" fill="none" xmlns="http://www.w3.org/2000/svg">
<path d="M13 4C15.3869 4 17.6761 4.94821 19.364 6.63604C21.0518 8.32387 22 10.6131 22 13C22 15.3869 21.0518 17.6761 19.364 19.364C17.6761 21.0518 15.3869 22 13 22C10.6131 22 8.32387 21.0518 6.63604 19.364C4.94821 17.6761 4 15.3869 4 13C4 10.6131 4.94821 8.32387 6.63604 6.63604C8.32387 4.94821 10.6131 4 13 4Z" fill="#D9D9D9"/>
<path d="M14.1307 13L16.7675 10.3632C16.9161 10.2127 16.9991 10.0096 16.9984 9.7981C16.9978 9.58663 16.9135 9.38402 16.7639 9.23449C16.6144 9.08496 16.4118 9.00066 16.2003 9C15.9888 8.99934 15.7857 9.08237 15.6352 9.23096L12.9984 11.8677L10.3616 9.23096C10.211 9.08306 10.0081 9.00062 9.79701 9.00157C9.58593 9.00253 9.38376 9.08681 9.2345 9.23607C9.08524 9.38533 9.00096 9.58749 9.00001 9.79858C8.99905 10.0097 9.08149 10.2126 9.2294 10.3632L11.8661 13L9.2294 15.6368C9.08149 15.7874 8.99905 15.9903 9.00001 16.2014C9.00096 16.4125 9.08524 16.6146 9.2345 16.7639C9.38376 16.9132 9.58593 16.9974 9.79701 16.9984C10.0081 16.9994 10.211 16.9169 10.3616 16.769L12.9984 14.1323L15.6352 16.7691C15.7857 16.9176 15.9888 17.0007 16.2003 17C16.4118 16.9993 16.6144 16.915 16.7639 16.7655C16.9134 16.616 16.9977 16.4133 16.9984 16.2019C16.9991 15.9904 16.916 15.7873 16.7674 15.6368L14.1307 13Z" fill="#B7B7B7"/>
</svg>
