<svg width="50" height="41" viewBox="0 0 50 41" fill="none" xmlns="http://www.w3.org/2000/svg">
<path d="M33.5239 1.08673C37.3316 -0.815039 41.7701 2.11855 41.5132 6.367L41.4341 7.65997C46.1538 11.6876 49.0512 17.2965 49.0513 22.8358C49.0513 33.2179 37.9866 40.5291 24.7036 40.5291C11.4206 40.5291 0.94873 33.2179 0.94873 22.8358C0.948845 17.5506 3.89358 12.2025 8.53662 8.22443L8.42529 6.367C8.16842 2.11855 12.6068 -0.815039 16.4146 1.08673L19.4282 2.59161C21.4087 2.09605 23.4761 1.826 25.5923 1.82599C27.4221 1.82599 29.1929 2.02821 30.8862 2.40314L33.5239 1.08673Z" fill="#272727"/>
<ellipse cx="25.138" cy="28.6406" rx="6.49656" ry="4.97608" fill="#D1D1D1"/>
<ellipse cx="22.3735" cy="28.6405" rx="1.52047" ry="1.24402" fill="#A5A5A5"/>
<ellipse cx="28.0407" cy="28.6405" rx="1.38225" ry="1.24402" fill="#A5A5A5"/>
<ellipse cx="4.97608" cy="5.75476" rx="4.97608" ry="5.75476" transform="matrix(-0.943283 -0.33199 -0.33199 0.943283 21.6217 14.6797)" fill="white"/>
<ellipse cx="3.66902" cy="4.24316" rx="3.66902" ry="4.24316" transform="matrix(-0.943283 -0.33199 -0.33199 0.943283 20.9169 16.1494)" fill="#272727"/>
<ellipse cx="35.1373" cy="18.456" rx="4.97608" ry="5.75476" transform="rotate(-19.3896 35.1373 18.456)" fill="white"/>
<ellipse cx="34.5692" cy="19.2097" rx="3.66902" ry="4.24316" transform="rotate(-19.3896 34.5692 19.2097)" fill="#272727"/>
</svg>
