<svg width="32" height="32" viewBox="0 0 32 32" fill="none" xmlns="http://www.w3.org/2000/svg">
<path fill-rule="evenodd" clip-rule="evenodd" d="M21.6186 3.39355C21.2553 3.03027 20.6663 3.03027 20.303 3.39355L5.41928 18.2773C5.30007 18.3965 5.21549 18.5459 5.1746 18.7094L3.93429 23.6707C3.85504 23.9877 3.94792 24.323 4.17897 24.5541C4.41002 24.7851 4.74536 24.878 5.06236 24.7987L10.0236 23.5584C10.1872 23.5175 10.3365 23.433 10.4558 23.3137L25.3395 8.43003C25.7028 8.06675 25.7028 7.47776 25.3395 7.11448L21.6186 3.39355Z" fill="#FF8B4C"/>
<path fill-rule="evenodd" clip-rule="evenodd" d="M2.66626 27.6177C2.66626 27.104 3.08274 26.6875 3.59649 26.6875H28.4027C28.9164 26.6875 29.3329 27.104 29.3329 27.6177C29.3329 28.1315 28.9164 28.548 28.4027 28.548H3.59649C3.08274 28.548 2.66626 28.1315 2.66626 27.6177Z" fill="#FACA70"/>
</svg>
