<svg width="121" height="120" viewBox="0 0 121 120" fill="none" xmlns="http://www.w3.org/2000/svg">
<path d="M99.1662 50.4564C99.1662 67.2195 81.3016 79.0233 59.8547 79.0233C38.4078 79.0233 21.5 67.2195 21.5 50.4564C21.5 33.6933 39.843 16.5332 61.2899 16.5332C82.7369 16.5332 99.1662 33.6933 99.1662 50.4564Z" fill="#4D4D4D"/>
<path d="M46.4706 15.3397C40.3226 12.269 33.1561 17.0053 33.5709 23.8649L33.9908 30.8102L52.6954 18.4487L46.4706 15.3397Z" fill="#4D4D4D"/>
<path d="M74.0965 15.3397C80.2445 12.269 87.411 17.0053 86.9962 23.8649L86.5763 30.8102L67.8717 18.4487L74.0965 15.3397Z" fill="#4D4D4D"/>
<ellipse cx="60.5563" cy="58.843" rx="10.4894" ry="8.03444" fill="#5E5D5D"/>
<ellipse cx="56.0926" cy="58.7391" rx="2.45497" ry="2.00861" fill="#413939"/>
<ellipse cx="65.2429" cy="58.7391" rx="2.23179" ry="2.00861" fill="#413939"/>
<ellipse cx="76.701" cy="43.3844" rx="8.03444" ry="9.29169" transform="rotate(-19.3896 76.701 43.3844)" fill="white"/>
<ellipse cx="8.03444" cy="9.29169" rx="8.03444" ry="9.29169" transform="matrix(-0.943283 -0.33199 -0.33199 0.943283 54.8786 37.2871)" fill="white"/>
<ellipse cx="75.7836" cy="44.6012" rx="5.92403" ry="6.85104" transform="rotate(-19.3896 75.7836 44.6012)" fill="black"/>
<ellipse cx="5.92403" cy="6.85104" rx="5.92403" ry="6.85104" transform="matrix(-0.943283 -0.33199 -0.33199 0.943283 53.7402 39.6602)" fill="black"/>
<mask id="mask0_996_27184" style="mask-type:alpha" maskUnits="userSpaceOnUse" x="67" y="30" width="21" height="14">
<ellipse cx="77.5517" cy="37.0523" rx="9.87081" ry="6.66279" transform="rotate(14.6804 77.5517 37.0523)" fill="#D9D9D9"/>
</mask>
<g mask="url(#mask0_996_27184)">
<ellipse cx="76.5866" cy="43.693" rx="8.03444" ry="9.29169" transform="rotate(-19.3896 76.5866 43.693)" fill="white"/>
</g>
<mask id="mask1_996_27184" style="mask-type:alpha" maskUnits="userSpaceOnUse" x="33" y="30" width="21" height="14">
<ellipse cx="9.87081" cy="6.66279" rx="9.87081" ry="6.66279" transform="matrix(-0.967355 0.253427 0.253427 0.967355 51.3575 28.1055)" fill="#D9D9D9"/>
</mask>
<g mask="url(#mask1_996_27184)">
<ellipse cx="8.03444" cy="9.29169" rx="8.03444" ry="9.29169" transform="matrix(-0.943283 -0.33199 -0.33199 0.943283 55.1261 37.5957)" fill="white"/>
</g>
<path d="M46.9698 60.0789C46.9698 60.6759 46.2741 61.7814 45.416 61.7814C44.5578 61.7814 43.8621 60.6759 43.8621 60.0789C43.8621 59.4819 44.5578 56.1875 45.416 56.1875C46.2741 56.1875 46.9698 59.4819 46.9698 60.0789Z" fill="white"/>
<path d="M30.0394 85.8061C27.5288 93.7837 30.3573 98.2522 35.4189 99.6084C40.4805 100.965 45.8586 98.6952 48.3692 90.7176C50.8798 82.7399 49.6315 72.5685 44.5699 71.2122C39.5082 69.856 32.55 77.8285 30.0394 85.8061Z" fill="url(#paint0_linear_996_27184)"/>
<path d="M91.027 86.308C93.1162 94.4062 90.0576 98.7203 84.9319 99.8096C79.8062 100.899 74.5543 98.3507 72.4651 90.2525C70.3758 82.1544 72.1552 72.0623 77.281 70.973C82.4067 69.8838 88.9378 78.2098 91.027 86.308Z" fill="url(#paint1_linear_996_27184)"/>
<path d="M59.7649 69.8027C69.9962 69.8027 78.2903 82.1762 78.2903 90.5411C78.2903 91.9829 78.0437 95.6487 77.5834 96.9698C78.0375 99.0805 78.2903 99.1458 78.2903 101.604C78.2903 111.014 74.5935 112.501 70.0333 112.501C66.21 112.501 62.9943 111.456 62.0546 105.572C61.3043 105.648 60.5402 105.687 59.7649 105.687C58.8458 105.687 57.9424 105.632 57.0591 105.526C56.1288 111.45 52.9064 112.501 49.0731 112.501C44.5129 112.501 40.8161 111.014 40.8161 101.604C40.8161 98.8389 41.1356 98.499 41.7021 96.19C41.3995 95.1038 41.2395 91.7021 41.2395 90.5411C41.2396 82.1762 49.5337 69.8027 59.7649 69.8027Z" fill="#4D4D4D"/>
<defs>
<linearGradient id="paint0_linear_996_27184" x1="39.4555" y1="85.3353" x2="36.2405" y2="99.8001" gradientUnits="userSpaceOnUse">
<stop stop-color="#4D4D4D"/>
<stop offset="1" stop-color="#706E6B"/>
</linearGradient>
<linearGradient id="paint1_linear_996_27184" x1="81.6485" y1="85.3447" x2="84.1014" y2="99.9579" gradientUnits="userSpaceOnUse">
<stop stop-color="#4D4D4D"/>
<stop offset="1" stop-color="#706E6B"/>
</linearGradient>
</defs>
</svg>
