<svg width="32" height="32" viewBox="0 0 32 32" fill="none" xmlns="http://www.w3.org/2000/svg">
<path d="M4.43164 23.0161C4.43164 23.0161 4.43503 23.0202 4.43639 23.0222C4.4696 23.0737 4.50823 23.1218 4.54483 23.1706C4.59973 23.2445 4.65802 23.315 4.7197 23.3828C4.75901 23.4255 4.79628 23.4695 4.83831 23.5095C4.93591 23.6037 5.04164 23.6898 5.15212 23.7684C5.19007 23.7956 5.23006 23.8193 5.26937 23.8444C5.37578 23.9121 5.48626 23.9725 5.60216 24.0253C5.62656 24.0362 5.6496 24.0497 5.674 24.0599C5.81498 24.1189 5.96341 24.1629 6.11591 24.1968C6.15048 24.2049 6.18572 24.211 6.22097 24.2178C6.37957 24.247 6.54088 24.2673 6.70761 24.2673H25.6914C25.8581 24.2673 26.0201 24.247 26.1781 24.2178C26.2133 24.211 26.2485 24.2049 26.2831 24.1968C26.4356 24.1622 26.584 24.1189 26.725 24.0599C26.7494 24.0497 26.7725 24.0362 26.7969 24.0253C26.9128 23.9731 27.0232 23.9121 27.1297 23.8444C27.169 23.8193 27.209 23.7956 27.2469 23.7684C27.3581 23.6898 27.4631 23.6037 27.5607 23.5095C27.6021 23.4695 27.64 23.4255 27.6793 23.3828C27.741 23.315 27.7993 23.2445 27.8542 23.1706C27.8908 23.1212 27.9294 23.0737 27.9626 23.0222C27.964 23.0202 27.966 23.0181 27.9674 23.0161H4.43164Z" fill="#DE001B"/>
<path d="M4 21.5562V21.5589C4 21.6294 4.01559 21.6958 4.02101 21.7642H28.3796C28.385 21.6951 28.4006 21.6294 28.4006 21.5589V20.5131H4V21.5562Z" fill="#DE001B"/>
<path d="M28.3999 18.0114H4V19.2625H28.3999V18.0114Z" fill="#DE001B"/>
<path d="M28.4005 15.5084H16.3652V16.7596H28.4005V15.5084Z" fill="#DE001B"/>
<path d="M28.4005 13.0052H16.3652V14.2564H28.4005V13.0052Z" fill="#DE001B"/>
<path d="M28.3795 10.5029H16.3652V11.7541H28.4005V10.709C28.4005 10.6385 28.3849 10.5714 28.3795 10.5029Z" fill="#DE001B"/>
<path d="M27.9674 9.25185H27.9687C27.9687 9.25185 27.9654 9.24778 27.964 9.24507C27.9308 9.19356 27.8922 9.14612 27.8562 9.09732C27.8013 9.02344 27.7424 8.95227 27.68 8.88382C27.6414 8.8418 27.6041 8.79842 27.5628 8.75843C27.4645 8.66422 27.3594 8.57746 27.2483 8.49884C27.2103 8.47241 27.171 8.44869 27.1317 8.42361C27.0246 8.35583 26.9134 8.29483 26.7969 8.24197C26.7731 8.23112 26.7508 8.21824 26.7264 8.20808C26.5847 8.14911 26.4363 8.10505 26.2838 8.07049C26.2492 8.06236 26.214 8.05625 26.1787 8.04948C26.0201 8.02033 25.8588 8 25.6921 8H16.3652V9.25117L27.9674 9.25185Z" fill="#DE001B"/>
<path d="M16.3653 15.5086V8.00085H6.70839C6.54166 8.00085 6.37967 8.02119 6.22175 8.05033C6.1865 8.05711 6.15126 8.06321 6.11669 8.07134C5.96419 8.10591 5.81576 8.14929 5.6741 8.20893C5.6497 8.2191 5.62734 8.23198 5.60362 8.24282C5.48704 8.29569 5.37588 8.35669 5.2688 8.42446C5.22948 8.44954 5.19017 8.47326 5.15222 8.4997C5.04106 8.579 4.93533 8.66507 4.83773 8.75929C4.79639 8.79927 4.75911 8.84265 4.72047 8.88467C4.65812 8.95313 4.59983 9.02362 4.54425 9.09817C4.50765 9.14765 4.4697 9.19442 4.43649 9.24593C4.43513 9.24796 4.4331 9.24999 4.43174 9.25271C4.36668 9.35369 4.3111 9.4601 4.26094 9.5699C4.22705 9.64446 4.19655 9.72105 4.16944 9.79899C4.15521 9.84101 4.14233 9.88371 4.13013 9.92641C4.07659 10.1094 4.03796 10.2992 4.02237 10.4957C4.02237 10.4985 4.02169 10.5012 4.02101 10.5039C4.01559 10.573 4 10.6388 4 10.7092V15.5086V16.7604H16.3647V15.5092L16.3653 15.5086ZM5.25524 15.6807L4.97871 15.476L4.70218 15.6807L4.80791 15.35L4.53138 15.1453H4.87297L4.97871 14.8145L5.08444 15.1453H5.42604L5.14951 15.35L5.25524 15.6807ZM5.14951 13.888L5.25524 14.2188L4.97871 14.0148L4.70218 14.2188L4.80791 13.888L4.53138 13.6833H4.87297L4.97871 13.3526L5.08444 13.6833H5.42604L5.14951 13.888ZM5.14951 12.4254L5.25524 12.7568L4.97871 12.5521L4.70218 12.7568L4.80791 12.4254L4.53138 12.2214H4.87297L4.97871 11.8899L5.08444 12.2214H5.42604L5.14951 12.4254ZM5.14951 10.9634L5.25524 11.2948L4.97871 11.0902L4.70218 11.2948L4.80791 10.9634L4.53138 10.7587H4.87297L4.97871 10.4273L5.08444 10.7587H5.42604L5.14951 10.9634ZM5.14951 9.50145L5.25524 9.83288L4.97871 9.62819L4.70218 9.83288L4.80791 9.50145L4.53138 9.29676H4.87297L4.97871 8.96533L5.08444 9.29676H5.42604L5.14951 9.50145ZM6.25631 14.9887L5.9791 14.7847L5.70257 14.9887L5.8083 14.658L5.53177 14.4533H5.87405L5.97978 14.1225L6.08551 14.4533H6.42779L6.15126 14.658L6.25631 14.9887ZM6.15058 13.196L6.25631 13.5268L5.9791 13.3221L5.70257 13.5268L5.8083 13.196L5.53177 12.9913H5.87405L5.97978 12.6606L6.08551 12.9913H6.42779L6.15058 13.196ZM6.15058 11.734L6.25631 12.0648L5.9791 11.8608L5.70257 12.0648L5.8083 11.734L5.53177 11.5294H5.87405L5.97978 11.1986L6.08551 11.5294H6.42779L6.15058 11.734ZM6.15058 10.2721L6.25631 10.6028L5.9791 10.3988L5.70257 10.6028L5.8083 10.2721L5.53177 10.0674H5.87405L5.97978 9.73664L6.08551 10.0674H6.42779L6.15058 10.2721ZM7.27026 15.6807L6.99373 15.476L6.71652 15.6807L6.82226 15.35L6.54572 15.1453H6.888L6.99373 14.8145L7.09947 15.1453H7.44174L7.16521 15.35L7.27026 15.6807ZM7.16453 13.888L7.27026 14.2188L6.99373 14.0148L6.71652 14.2188L6.82226 13.888L6.54572 13.6833H6.888L6.99373 13.3526L7.09947 13.6833H7.44174L7.16453 13.888ZM7.16453 12.4254L7.27026 12.7568L6.99373 12.5521L6.71652 12.7568L6.82226 12.4254L6.54572 12.2214H6.888L6.99373 11.8899L7.09947 12.2214H7.44174L7.16453 12.4254ZM7.16453 10.9634L7.27026 11.2948L6.99373 11.0902L6.71652 11.2948L6.82226 10.9634L6.54572 10.7587H6.888L6.99373 10.4273L7.09947 10.7587H7.44174L7.16453 10.9634ZM7.16453 9.50145L7.27026 9.83288L6.99373 9.62819L6.71652 9.83288L6.82226 9.50145L6.54572 9.29676H6.888L6.99373 8.96533L7.09947 9.29676H7.44174L7.16453 9.50145ZM8.27134 14.9887L7.99481 14.7847L7.71827 14.9887L7.82401 14.658L7.54747 14.4533H7.88975L7.99548 14.1225L8.10122 14.4533H8.44349L8.16696 14.658L8.27269 14.9887H8.27134ZM8.16561 13.196L8.27134 13.5268L7.99481 13.3221L7.71827 13.5268L7.82401 13.196L7.54747 12.9913H7.88975L7.99548 12.6606L8.10122 12.9913H8.44349L8.16696 13.196H8.16561ZM8.16561 11.734L8.27134 12.0648L7.99481 11.8608L7.71827 12.0648L7.82401 11.734L7.54747 11.5294H7.88975L7.99548 11.1986L8.10122 11.5294H8.44349L8.16696 11.734H8.16561ZM8.16561 10.2721L8.27134 10.6028L7.99481 10.3988L7.71827 10.6028L7.82401 10.2721L7.54747 10.0674H7.88975L7.99548 9.73664L8.10122 10.0674H8.44349L8.16696 10.2721H8.16561ZM9.28461 15.6807L9.00808 15.476L8.73155 15.6807L8.83728 15.35L8.56075 15.1453H8.90302L9.00876 14.8145L9.11449 15.1453H9.45677L9.18023 15.35L9.28597 15.6807H9.28461ZM9.17888 13.888L9.28461 14.2188L9.00808 14.0148L8.73155 14.2188L8.83728 13.888L8.56075 13.6833H8.90302L9.00876 13.3526L9.11449 13.6833H9.45677L9.18023 13.888H9.17888ZM9.17888 12.4254L9.28461 12.7568L9.00808 12.5521L8.73155 12.7568L8.83728 12.4254L8.56075 12.2214H8.90302L9.00876 11.8899L9.11449 12.2214H9.45677L9.18023 12.4254H9.17888ZM9.17888 10.9634L9.28461 11.2948L9.00808 11.0902L8.73155 11.2948L8.83728 10.9634L8.56075 10.7587H8.90302L9.00876 10.4273L9.11449 10.7587H9.45677L9.18023 10.9634H9.17888ZM9.17888 9.50145L9.28461 9.83288L9.00808 9.62819L8.73155 9.83288L8.83728 9.50145L8.56075 9.29676H8.90302L9.00876 8.96533L9.11449 9.29676H9.45677L9.18023 9.50145H9.17888ZM10.2857 14.9887L10.0092 14.7847L9.73262 14.9887L9.83835 14.658L9.56182 14.4533H9.90342L10.0092 14.1225L10.1149 14.4533H10.4565L10.18 14.658L10.2857 14.9887ZM10.18 13.196L10.2857 13.5268L10.0092 13.3221L9.73262 13.5268L9.83835 13.196L9.56182 12.9913H9.90342L10.0092 12.6606L10.1149 12.9913H10.4565L10.18 13.196ZM10.18 11.734L10.2857 12.0648L10.0092 11.8608L9.73262 12.0648L9.83835 11.734L9.56182 11.5294H9.90342L10.0092 11.1986L10.1149 11.5294H10.4565L10.18 11.734ZM10.18 10.2721L10.2857 10.6028L10.0092 10.3988L9.73262 10.6028L9.83835 10.2721L9.56182 10.0674H9.90342L10.0092 9.73664L10.1149 10.0674H10.4565L10.18 10.2721ZM11.2996 15.6807L11.0231 15.476L10.7466 15.6807L10.8523 15.35L10.5758 15.1453H10.9181L11.0238 14.8145L11.1295 15.1453H11.4718L11.1953 15.35L11.301 15.6807H11.2996ZM11.1939 13.888L11.2996 14.2188L11.0231 14.0148L10.7466 14.2188L10.8523 13.888L10.5758 13.6833H10.9181L11.0238 13.3526L11.1295 13.6833H11.4718L11.1953 13.888H11.1939ZM11.1939 12.4254L11.2996 12.7568L11.0231 12.5521L10.7466 12.7568L10.8523 12.4254L10.5758 12.2214H10.9181L11.0238 11.8899L11.1295 12.2214H11.4718L11.1953 12.4254H11.1939ZM11.1939 10.9634L11.2996 11.2948L11.0231 11.0902L10.7466 11.2948L10.8523 10.9634L10.5758 10.7587H10.9181L11.0238 10.4273L11.1295 10.7587H11.4718L11.1953 10.9634H11.1939ZM11.1939 9.50145L11.2996 9.83288L11.0231 9.62819L10.7466 9.83288L10.8523 9.50145L10.5758 9.29676H10.9181L11.0238 8.96533L11.1295 9.29676H11.4718L11.1953 9.50145H11.1939ZM12.3007 14.9887L12.0242 14.7847L11.747 14.9887L11.8527 14.658L11.5762 14.4533H11.9184L12.0242 14.1225L12.1299 14.4533H12.4722L12.1957 14.658L12.3007 14.9887ZM12.195 13.196L12.3007 13.5268L12.0242 13.3221L11.747 13.5268L11.8527 13.196L11.5762 12.9913H11.9184L12.0242 12.6606L12.1299 12.9913H12.4722L12.195 13.196ZM12.195 11.734L12.3007 12.0648L12.0242 11.8608L11.747 12.0648L11.8527 11.734L11.5762 11.5294H11.9184L12.0242 11.1986L12.1299 11.5294H12.4722L12.195 11.734ZM12.195 10.2721L12.3007 10.6028L12.0242 10.3988L11.747 10.6028L11.8527 10.2721L11.5762 10.0674H11.9184L12.0242 9.73664L12.1299 10.0674H12.4722L12.195 10.2721ZM13.3147 15.6807L13.0381 15.476L12.7616 15.6807L12.8673 15.35L12.5908 15.1453H12.9331L13.0388 14.8145L13.1445 15.1453H13.4868L13.2103 15.35L13.316 15.6807H13.3147ZM13.2089 13.888L13.3147 14.2188L13.0381 14.0148L12.7616 14.2188L12.8673 13.888L12.5908 13.6833H12.9331L13.0388 13.3526L13.1445 13.6833H13.4868L13.2103 13.888H13.2089ZM13.2089 12.4254L13.3147 12.7568L13.0381 12.5521L12.7616 12.7568L12.8673 12.4254L12.5908 12.2214H12.9331L13.0388 11.8899L13.1445 12.2214H13.4868L13.2103 12.4254H13.2089ZM13.2089 10.9634L13.3147 11.2948L13.0381 11.0902L12.7616 11.2948L12.8673 10.9634L12.5908 10.7587H12.9331L13.0388 10.4273L13.1445 10.7587H13.4868L13.2103 10.9634H13.2089ZM13.2089 9.50145L13.3147 9.83288L13.0381 9.62819L12.7616 9.83288L12.8673 9.50145L12.5908 9.29676H12.9331L13.0388 8.96533L13.1445 9.29676H13.4868L13.2103 9.50145H13.2089ZM14.3151 14.9887L14.0385 14.7847L13.762 14.9887L13.8677 14.658L13.5912 14.4533H13.9335L14.0392 14.1225L14.1449 14.4533H14.4872L14.2107 14.658L14.3164 14.9887H14.3151ZM14.2093 13.196L14.3151 13.5268L14.0385 13.3221L13.762 13.5268L13.8677 13.196L13.5912 12.9913H13.9335L14.0392 12.6606L14.1449 12.9913H14.4872L14.2107 13.196H14.2093ZM14.2093 11.734L14.3151 12.0648L14.0385 11.8608L13.762 12.0648L13.8677 11.734L13.5912 11.5294H13.9335L14.0392 11.1986L14.1449 11.5294H14.4872L14.2107 11.734H14.2093ZM14.2093 10.2721L14.3151 10.6028L14.0385 10.3988L13.762 10.6028L13.8677 10.2721L13.5912 10.0674H13.9335L14.0392 9.73664L14.1449 10.0674H14.4872L14.2107 10.2721H14.2093ZM15.329 15.6807L15.0518 15.476L14.7753 15.6807L14.881 15.35L14.6045 15.1453H14.9467L15.0525 14.8145L15.1582 15.1453H15.5005L15.224 15.35L15.329 15.6807ZM15.2233 13.888L15.329 14.2188L15.0518 14.0148L14.7753 14.2188L14.881 13.888L14.6045 13.6833H14.9467L15.0525 13.3526L15.1582 13.6833H15.5005L15.2233 13.888ZM15.2233 12.4254L15.329 12.7568L15.0518 12.5521L14.7753 12.7568L14.881 12.4254L14.6045 12.2214H14.9467L15.0525 11.8899L15.1582 12.2214H15.5005L15.2233 12.4254ZM15.2233 10.9634L15.329 11.2948L15.0518 11.0902L14.7753 11.2948L14.881 10.9634L14.6045 10.7587H14.9467L15.0525 10.4273L15.1582 10.7587H15.5005L15.2233 10.9634ZM15.2233 9.50145L15.329 9.83288L15.0518 9.62819L14.7753 9.83288L14.881 9.50145L14.6045 9.29676H14.9467L15.0525 8.96533L15.1582 9.29676H15.5005L15.2233 9.50145Z" fill="#293464"/>
<path d="M4.43555 9.24578C4.46876 9.19427 4.50739 9.14682 4.54331 9.09802C4.50671 9.1475 4.46876 9.19427 4.43555 9.24578Z" fill="#E3E7EA"/>
<path d="M4.16992 9.79818C4.19703 9.72024 4.22753 9.64365 4.26142 9.56909C4.22685 9.64365 4.19771 9.72024 4.16992 9.79818Z" fill="#E3E7EA"/>
<path d="M4.43094 23.0161H27.966C28.2012 22.6501 28.3422 22.2231 28.3774 21.7649H4.01953C4.05478 22.2231 4.19643 22.6501 4.43094 23.0161Z" fill="#E3E7EA"/>
<path d="M4.02148 10.4949C4.03707 10.2976 4.07571 10.1079 4.12925 9.92554C4.07367 10.1085 4.03775 10.2983 4.02148 10.4949Z" fill="#E3E7EA"/>
<path d="M28.3999 19.2626H4V20.5137H28.3999V19.2626Z" fill="#E3E7EA"/>
<path d="M6.11719 8.07118C6.15175 8.06305 6.187 8.05695 6.22224 8.05017C6.187 8.05695 6.15243 8.06305 6.11719 8.07118Z" fill="#E3E7EA"/>
<path d="M27.8555 9.09729C27.8921 9.14677 27.93 9.19353 27.9632 9.24505C27.93 9.19353 27.8921 9.14609 27.8555 9.09729Z" fill="#E3E7EA"/>
<path d="M16.3652 10.503H28.3795C28.3442 10.0448 28.2026 9.61783 27.9681 9.25183H16.3659L16.3652 10.503Z" fill="#E3E7EA"/>
<path d="M28.4005 11.7542H16.3652V13.0053H28.4005V11.7542Z" fill="#E3E7EA"/>
<path d="M27.9639 23.0222C27.9307 23.0737 27.8921 23.1218 27.8555 23.1706C27.8921 23.1212 27.9307 23.0737 27.9639 23.0222Z" fill="#E3E7EA"/>
<path d="M4 16.7601V18.0113H28.3999V16.7601H16.3647H4Z" fill="#E3E7EA"/>
<path d="M16.3652 15.5079V15.5086H28.4005V14.2567H16.3652V15.5079Z" fill="#E3E7EA"/>
<path d="M26.7984 24.0253C26.774 24.0361 26.751 24.0497 26.7266 24.0598C26.7516 24.0497 26.774 24.0361 26.7984 24.0253Z" fill="#E3E7EA"/>
<path d="M26.2828 24.1967C26.2482 24.2048 26.213 24.2109 26.1777 24.2177C26.213 24.2109 26.2475 24.2048 26.2828 24.1967Z" fill="#E3E7EA"/>
<path d="M4.97926 8.96582L4.87285 9.29725H4.53125L4.80778 9.50126L4.70205 9.83269L4.97926 9.62733L5.25579 9.83269L5.15006 9.50126L5.42659 9.29725H5.08499L4.97926 8.96582Z" fill="#E3E7EA"/>
<path d="M4.97926 10.4277L4.87285 10.7592H4.53125L4.80778 10.9632L4.70205 11.2946L4.97926 11.0899L5.25579 11.2946L5.15006 10.9632L5.42659 10.7592H5.08499L4.97926 10.4277Z" fill="#E3E7EA"/>
<path d="M4.97926 11.8896L4.87285 12.2211H4.53125L4.80778 12.4251L4.70205 12.7565L4.97926 12.5518L5.25579 12.7565L5.15006 12.4251L5.42659 12.2211H5.08499L4.97926 11.8896Z" fill="#E3E7EA"/>
<path d="M4.97926 13.3524L4.87285 13.6832H4.53125L4.80778 13.8885L4.70205 14.2186L4.97926 14.0146L5.25579 14.2186L5.15006 13.8885L5.42659 13.6832H5.08499L4.97926 13.3524Z" fill="#E3E7EA"/>
<path d="M5.08499 15.1451L4.97926 14.8143L4.87285 15.1451H4.53125L4.80778 15.3505L4.70205 15.6812L4.97926 15.4765L5.25579 15.6812L5.15006 15.3505L5.42659 15.1451H5.08499Z" fill="#E3E7EA"/>
<path d="M5.97858 9.73621L5.87353 10.067H5.53125L5.80778 10.2716L5.70205 10.6024L5.97858 10.3984L6.25579 10.6024L6.15006 10.2716L6.42659 10.067H6.08431L5.97858 9.73621Z" fill="#E3E7EA"/>
<path d="M5.97858 11.1981L5.87353 11.5289H5.53125L5.80778 11.7336L5.70205 12.0643L5.97858 11.8603L6.25579 12.0643L6.15006 11.7336L6.42659 11.5289H6.08431L5.97858 11.1981Z" fill="#E3E7EA"/>
<path d="M5.97858 12.6604L5.87353 12.9912H5.53125L5.80778 13.1965L5.70205 13.5266L5.97858 13.3226L6.25579 13.5266L6.15006 13.1965L6.42659 12.9912H6.08431L5.97858 12.6604Z" fill="#E3E7EA"/>
<path d="M6.08431 14.4531L5.97858 14.1223L5.87353 14.4531H5.53125L5.80778 14.6584L5.70205 14.9885L5.97858 14.7845L6.25579 14.9885L6.15006 14.6584L6.42659 14.4531H6.08431Z" fill="#E3E7EA"/>
<path d="M6.99293 8.96582L6.8872 9.29725H6.54492L6.82213 9.50126L6.7164 9.83269L6.99293 9.62733L7.27014 9.83269L7.16373 9.50126L7.44094 9.29725H7.09866L6.99293 8.96582Z" fill="#E3E7EA"/>
<path d="M6.99293 10.4277L6.8872 10.7592H6.54492L6.82213 10.9632L6.7164 11.2946L6.99293 11.0899L7.27014 11.2946L7.16373 10.9632L7.44094 10.7592H7.09866L6.99293 10.4277Z" fill="#E3E7EA"/>
<path d="M6.99293 11.8896L6.8872 12.2211H6.54492L6.82213 12.4251L6.7164 12.7565L6.99293 12.5518L7.27014 12.7565L7.16373 12.4251L7.44094 12.2211H7.09866L6.99293 11.8896Z" fill="#E3E7EA"/>
<path d="M6.99293 13.3524L6.8872 13.6832H6.54492L6.82213 13.8885L6.7164 14.2186L6.99293 14.0146L7.27014 14.2186L7.16373 13.8885L7.44094 13.6832H7.09866L6.99293 13.3524Z" fill="#E3E7EA"/>
<path d="M7.09866 15.1451L6.99293 14.8143L6.8872 15.1451H6.54492L6.82213 15.3505L6.7164 15.6812L6.99293 15.4765L7.27014 15.6812L7.16373 15.3505L7.44094 15.1451H7.09866Z" fill="#E3E7EA"/>
<path d="M7.99488 9.73621L7.88915 10.067H7.54688L7.82341 10.2716L7.71835 10.6024L7.99488 10.3984L8.27142 10.6024L8.16636 10.2716L8.44289 10.067H8.10062L7.99488 9.73621Z" fill="#E3E7EA"/>
<path d="M7.99488 11.1981L7.88915 11.5289H7.54688L7.82341 11.7336L7.71835 12.0643L7.99488 11.8603L8.27142 12.0643L8.16636 11.7336L8.44289 11.5289H8.10062L7.99488 11.1981Z" fill="#E3E7EA"/>
<path d="M7.99488 12.6604L7.88915 12.9912H7.54688L7.82341 13.1965L7.71835 13.5266L7.99488 13.3226L8.27142 13.5266L8.16636 13.1965L8.44289 12.9912H8.10062L7.99488 12.6604Z" fill="#E3E7EA"/>
<path d="M8.10062 14.4531L7.99488 14.1223L7.88915 14.4531H7.54688L7.82341 14.6584L7.71835 14.9885L7.99488 14.7845L8.27142 14.9885L8.16636 14.6584L8.44289 14.4531H8.10062Z" fill="#E3E7EA"/>
<path d="M9.0066 8.96582L8.90087 9.29725H8.55859L8.83513 9.50126L8.72939 9.83269L9.0066 9.62733L9.28314 9.83269L9.1774 9.50126L9.45393 9.29725H9.11234L9.0066 8.96582Z" fill="#E3E7EA"/>
<path d="M9.0066 10.4277L8.90087 10.7592H8.55859L8.83513 10.9632L8.72939 11.2946L9.0066 11.0899L9.28314 11.2946L9.1774 10.9632L9.45393 10.7592H9.11234L9.0066 10.4277Z" fill="#E3E7EA"/>
<path d="M9.0066 11.8896L8.90087 12.2211H8.55859L8.83513 12.4251L8.72939 12.7565L9.0066 12.5518L9.28314 12.7565L9.1774 12.4251L9.45393 12.2211H9.11234L9.0066 11.8896Z" fill="#E3E7EA"/>
<path d="M9.0066 13.3524L8.90087 13.6832H8.55859L8.83513 13.8885L8.72939 14.2186L9.0066 14.0146L9.28314 14.2186L9.1774 13.8885L9.45393 13.6832H9.11234L9.0066 13.3524Z" fill="#E3E7EA"/>
<path d="M9.11234 15.1451L9.0066 14.8143L8.90087 15.1451H8.55859L8.83513 15.3505L8.72939 15.6812L9.0066 15.4765L9.28314 15.6812L9.1774 15.3505L9.45393 15.1451H9.11234Z" fill="#E3E7EA"/>
<path d="M10.0086 9.73621L9.90215 10.067H9.56055L9.83708 10.2716L9.73135 10.6024L10.0086 10.3984L10.2851 10.6024L10.1794 10.2716L10.4559 10.067H10.1143L10.0086 9.73621Z" fill="#E3E7EA"/>
<path d="M10.0086 11.1981L9.90215 11.5289H9.56055L9.83708 11.7336L9.73135 12.0643L10.0086 11.8603L10.2851 12.0643L10.1794 11.7336L10.4559 11.5289H10.1143L10.0086 11.1981Z" fill="#E3E7EA"/>
<path d="M10.0086 12.6604L9.90215 12.9912H9.56055L9.83708 13.1965L9.73135 13.5266L10.0086 13.3226L10.2851 13.5266L10.1794 13.1965L10.4559 12.9912H10.1143L10.0086 12.6604Z" fill="#E3E7EA"/>
<path d="M10.1143 14.4531L10.0086 14.1223L9.90215 14.4531H9.56055L9.83708 14.6584L9.73135 14.9885L10.0086 14.7845L10.2851 14.9885L10.1794 14.6584L10.4559 14.4531H10.1143Z" fill="#E3E7EA"/>
<path d="M11.0216 8.96582L10.9165 9.29725H10.5742L10.8508 9.50126L10.745 9.83269L11.0216 9.62733L11.2988 9.83269L11.193 9.50126L11.4696 9.29725H11.128L11.0216 8.96582Z" fill="#E3E7EA"/>
<path d="M11.0216 10.4277L10.9165 10.7592H10.5742L10.8508 10.9632L10.745 11.2946L11.0216 11.0899L11.2988 11.2946L11.193 10.9632L11.4696 10.7592H11.128L11.0216 10.4277Z" fill="#E3E7EA"/>
<path d="M11.0216 11.8896L10.9165 12.2211H10.5742L10.8508 12.4251L10.745 12.7565L11.0216 12.5518L11.2988 12.7565L11.193 12.4251L11.4696 12.2211H11.128L11.0216 11.8896Z" fill="#E3E7EA"/>
<path d="M11.0216 13.3524L10.9165 13.6832H10.5742L10.8508 13.8885L10.745 14.2186L11.0216 14.0146L11.2988 14.2186L11.193 13.8885L11.4696 13.6832H11.128L11.0216 13.3524Z" fill="#E3E7EA"/>
<path d="M11.128 15.1451L11.0216 14.8143L10.9165 15.1451H10.5742L10.8508 15.3505L10.745 15.6812L11.0216 15.4765L11.2988 15.6812L11.193 15.3505L11.4696 15.1451H11.128Z" fill="#E3E7EA"/>
<path d="M12.0222 9.73621L11.9165 10.067H11.5742L11.8514 10.2716L11.7457 10.6024L12.0222 10.3984L12.2994 10.6024L12.1937 10.2716L12.4702 10.067H12.128L12.0222 9.73621Z" fill="#E3E7EA"/>
<path d="M12.0222 11.1981L11.9165 11.5289H11.5742L11.8514 11.7336L11.7457 12.0643L12.0222 11.8603L12.2994 12.0643L12.1937 11.7336L12.4702 11.5289H12.128L12.0222 11.1981Z" fill="#E3E7EA"/>
<path d="M12.0222 12.6604L11.9165 12.9912H11.5742L11.8514 13.1965L11.7457 13.5266L12.0222 13.3226L12.2994 13.5266L12.1937 13.1965L12.4702 12.9912H12.128L12.0222 12.6604Z" fill="#E3E7EA"/>
<path d="M12.128 14.4531L12.0222 14.1223L11.9165 14.4531H11.5742L11.8514 14.6584L11.7457 14.9885L12.0222 14.7845L12.2994 14.9885L12.1937 14.6584L12.4702 14.4531H12.128Z" fill="#E3E7EA"/>
<path d="M13.0379 8.96582L12.9321 9.29725H12.5898L12.8664 9.50126L12.7613 9.83269L13.0379 9.62733L13.3144 9.83269L13.2093 9.50126L13.4859 9.29725H13.1436L13.0379 8.96582Z" fill="#E3E7EA"/>
<path d="M13.0379 10.4277L12.9321 10.7592H12.5898L12.8664 10.9632L12.7613 11.2946L13.0379 11.0899L13.3144 11.2946L13.2093 10.9632L13.4859 10.7592H13.1436L13.0379 10.4277Z" fill="#E3E7EA"/>
<path d="M13.0379 11.8896L12.9321 12.2211H12.5898L12.8664 12.4251L12.7613 12.7565L13.0379 12.5518L13.3144 12.7565L13.2093 12.4251L13.4859 12.2211H13.1436L13.0379 11.8896Z" fill="#E3E7EA"/>
<path d="M13.0379 13.3524L12.9321 13.6832H12.5898L12.8664 13.8885L12.7613 14.2186L13.0379 14.0146L13.3144 14.2186L13.2093 13.8885L13.4859 13.6832H13.1436L13.0379 13.3524Z" fill="#E3E7EA"/>
<path d="M13.1436 15.1451L13.0379 14.8143L12.9321 15.1451H12.5898L12.8664 15.3505L12.7613 15.6812L13.0379 15.4765L13.3144 15.6812L13.2093 15.3505L13.4859 15.1451H13.1436Z" fill="#E3E7EA"/>
<path d="M14.0379 9.73621L13.9321 10.067H13.5898L13.8671 10.2716L13.7606 10.6024L14.0379 10.3984L14.3144 10.6024L14.2087 10.2716L14.4859 10.067H14.1436L14.0379 9.73621Z" fill="#E3E7EA"/>
<path d="M14.0379 11.1981L13.9321 11.5289H13.5898L13.8671 11.7336L13.7606 12.0643L14.0379 11.8603L14.3144 12.0643L14.2087 11.7336L14.4859 11.5289H14.1436L14.0379 11.1981Z" fill="#E3E7EA"/>
<path d="M14.0379 12.6604L13.9321 12.9912H13.5898L13.8671 13.1965L13.7606 13.5266L14.0379 13.3226L14.3144 13.5266L14.2087 13.1965L14.4859 12.9912H14.1436L14.0379 12.6604Z" fill="#E3E7EA"/>
<path d="M14.1436 14.4531L14.0379 14.1223L13.9321 14.4531H13.5898L13.8671 14.6584L13.7606 14.9885L14.0379 14.7845L14.3144 14.9885L14.2087 14.6584L14.4859 14.4531H14.1436Z" fill="#E3E7EA"/>
<path d="M15.0528 8.96582L14.9477 9.29725H14.6055L14.882 9.50126L14.7763 9.83269L15.0528 9.62733L15.33 9.83269L15.2243 9.50126L15.5008 9.29725H15.1592L15.0528 8.96582Z" fill="#E3E7EA"/>
<path d="M15.0528 10.4277L14.9477 10.7592H14.6055L14.882 10.9632L14.7763 11.2946L15.0528 11.0899L15.33 11.2946L15.2243 10.9632L15.5008 10.7592H15.1592L15.0528 10.4277Z" fill="#E3E7EA"/>
<path d="M15.0528 11.8896L14.9477 12.2211H14.6055L14.882 12.4251L14.7763 12.7565L15.0528 12.5518L15.33 12.7565L15.2243 12.4251L15.5008 12.2211H15.1592L15.0528 11.8896Z" fill="#E3E7EA"/>
<path d="M15.0528 13.3524L14.9477 13.6832H14.6055L14.882 13.8885L14.7763 14.2186L15.0528 14.0146L15.33 14.2186L15.2243 13.8885L15.5008 13.6832H15.1592L15.0528 13.3524Z" fill="#E3E7EA"/>
<path d="M15.1592 15.1451L15.0528 14.8143L14.9477 15.1451H14.6055L14.882 15.3505L14.7763 15.6812L15.0528 15.4765L15.33 15.6812L15.2243 15.3505L15.5008 15.1451H15.1592Z" fill="#E3E7EA"/>
</svg>
