<svg width="24" height="24" viewBox="0 0 24 24" fill="none" xmlns="http://www.w3.org/2000/svg">
<path d="M10.2485 3.375C11.1146 1.875 13.2796 1.875 14.1457 3.375L22.5894 18C23.4554 19.5 22.3729 21.375 20.6409 21.375H3.75336C2.02131 21.375 0.938774 19.5 1.8048 18L10.2485 3.375Z" fill="#FF4646"/>
<path d="M12.3471 18C12.8441 18 13.2471 17.597 13.2471 17.1C13.2471 16.6029 12.8441 16.2 12.3471 16.2C11.85 16.2 11.4471 16.6029 11.4471 17.1C11.4471 17.597 11.85 18 12.3471 18Z" fill="white"/>
<path d="M12.3471 14.4C12.1084 14.4 11.8795 14.3052 11.7107 14.1364C11.5419 13.9676 11.4471 13.7387 11.4471 13.5V9.9C11.4471 9.6613 11.5419 9.43239 11.7107 9.2636C11.8795 9.09482 12.1084 9 12.3471 9C12.5858 9 12.8147 9.09482 12.9835 9.2636C13.1523 9.43239 13.2471 9.6613 13.2471 9.9V13.5C13.2471 13.7387 13.1523 13.9676 12.9835 14.1364C12.8147 14.3052 12.5858 14.4 12.3471 14.4Z" fill="white"/>
</svg>
