<svg width="32" height="32" viewBox="0 0 32 32" fill="none" xmlns="http://www.w3.org/2000/svg">
<path d="M23.2312 28.3982C23.0201 28.3982 22.8123 28.3468 22.6256 28.2484L15.9999 24.7648L9.37429 28.2484C9.15963 28.3614 8.91764 28.412 8.6757 28.3946C8.43375 28.3772 8.20151 28.2925 8.00523 28.1499C7.80894 28.0074 7.65646 27.8128 7.56501 27.5881C7.47357 27.3635 7.44682 27.1177 7.48778 26.8786L8.75349 19.5001L3.39231 14.2748C3.21866 14.1054 3.09586 13.8909 3.03779 13.6554C2.97973 13.4199 2.98872 13.1729 3.06375 12.9423C3.13878 12.7116 3.27685 12.5066 3.46235 12.3504C3.64785 12.1941 3.87337 12.0929 4.11341 12.0582L11.5211 10.9816L14.8346 4.26836C14.954 4.06539 15.1243 3.89712 15.3287 3.78021C15.5331 3.66331 15.7645 3.60181 16 3.60181C16.2355 3.60181 16.4669 3.66331 16.6713 3.78021C16.8757 3.89712 17.046 4.06539 17.1654 4.26836L20.4789 10.9816L27.8866 12.0582C28.1266 12.0929 28.3521 12.1941 28.5377 12.3504C28.7232 12.5066 28.8612 12.7116 28.9363 12.9423C29.0113 13.1729 29.0203 13.4199 28.9622 13.6554C28.9041 13.8909 28.7813 14.1054 28.6077 14.2748L23.2465 19.5001L24.5122 26.8786C24.5442 27.0652 24.535 27.2564 24.4853 27.4391C24.4357 27.6217 24.3468 27.7913 24.2248 27.936C24.1028 28.0807 23.9507 28.1971 23.7791 28.2769C23.6075 28.3568 23.4204 28.3981 23.2312 28.3982Z" fill="#FF8B4C"/>
</svg>
