<svg width="121" height="91" viewBox="0 0 121 91" fill="none" xmlns="http://www.w3.org/2000/svg">
<g clip-path="url(#clip0_673_20322)">
<path d="M38.6323 94.5114C38.6811 103.653 43.1162 107.36 48.8371 107.083C54.5581 106.805 59.3986 102.648 59.3498 93.5072C59.3009 84.3659 54.6076 74.1955 48.8866 74.4728C43.1657 74.7501 38.5834 85.3701 38.6323 94.5114Z" fill="url(#paint0_linear_673_20322)"/>
<path d="M64.1623 70.0583C74.8801 66.8659 87.4293 77.2397 90.0394 86.0024C90.4893 87.5127 91.3747 91.4298 91.3048 92.9573C92.439 95.0268 92.7242 95.0162 93.4912 97.5912C96.4274 107.449 93.0186 110.16 88.2416 111.582C84.2365 112.775 80.5418 112.684 77.7217 106.814C76.9593 107.127 76.1712 107.407 75.359 107.649C74.3962 107.936 73.4326 108.16 72.4744 108.325C73.3482 114.82 70.3003 116.926 66.2848 118.122C61.5077 119.545 57.1713 119.142 54.2352 109.284C53.3724 106.388 53.601 105.932 53.474 103.336C52.8181 102.293 51.5892 98.7793 51.2269 97.563C48.6169 88.8004 53.4446 73.2506 64.1623 70.0583Z" fill="#282725"/>
<path d="M99.4007 37.498C104.631 55.0581 89.6001 72.9973 67.1334 79.6892C44.6667 86.3811 23.272 79.2917 18.0415 61.7315C12.8111 44.1713 26.6719 20.4719 49.1386 13.78C71.6053 7.08811 94.1702 19.9378 99.4007 37.498Z" fill="#282725"/>
<path d="M33.242 17.1539C25.8436 15.8555 19.8142 23.0531 22.389 30.1094L24.996 37.254L40.7329 18.4684L33.242 17.1539Z" fill="#282725"/>
<path d="M62.1814 8.53393C67.6636 3.39902 76.6486 6.12433 78.3545 13.4395L80.0817 20.8461L56.6307 13.733L62.1814 8.53393Z" fill="#282725"/>
<ellipse cx="61.8796" cy="59.3642" rx="11.4652" ry="8.78188" transform="rotate(-16.5866 61.8796 59.3642)" fill="#FFBDBD"/>
<ellipse cx="57.4125" cy="61.4592" rx="2.68335" ry="2.19547" transform="rotate(-16.5866 57.4125 61.4592)" fill="#FF7E7E"/>
<ellipse cx="66.9978" cy="58.605" rx="2.43941" ry="2.19547" transform="rotate(-16.5866 66.9978 58.605)" fill="#FF7E7E"/>
<ellipse cx="73.6604" cy="37.0991" rx="8.78188" ry="10.1561" transform="rotate(-35.9762 73.6604 37.0991)" fill="white"/>
<ellipse cx="8.78188" cy="10.1561" rx="8.78188" ry="10.1561" transform="matrix(-0.998804 -0.0489022 -0.0489022 0.998804 48.8979 37.5215)" fill="white"/>
<ellipse cx="73.0798" cy="38.6625" rx="6.47515" ry="7.4884" transform="rotate(-35.9762 73.0798 38.6625)" fill="black"/>
<ellipse cx="6.47515" cy="7.4884" rx="6.47515" ry="7.4884" transform="matrix(-0.998804 -0.0489022 -0.0489022 0.998804 48.446 40.3633)" fill="black"/>
<circle cx="70.6861" cy="79.1775" r="13.7217" transform="rotate(-47.1523 70.6861 79.1775)" fill="#FF9D00"/>
<path d="M65.5772 61.9605C63.8585 61.5573 62.0049 64.6664 61.3616 67.408C60.7184 70.1497 61.5903 72.6991 63.309 73.1024C65.0277 73.5056 66.9424 71.6099 67.5856 68.8683C68.2289 66.1266 67.2959 62.3638 65.5772 61.9605Z" fill="#54A16E"/>
<mask id="mask0_673_20322" style="mask-type:alpha" maskUnits="userSpaceOnUse" x="54" y="73" width="12" height="12">
<circle cx="59.7945" cy="79.0581" r="5.48868" transform="rotate(-47.1523 59.7945 79.0581)" fill="#D9D9D9"/>
</mask>
<g mask="url(#mask0_673_20322)">
<circle cx="70.6869" cy="79.1794" r="13.7217" transform="rotate(-47.1523 70.6869 79.1794)" fill="#FFBA4B"/>
</g>
<path d="M93.5294 83.919C93.4894 93.0603 89.0581 96.7718 83.3368 96.5001C77.6156 96.2284 72.771 92.0763 72.8109 82.935C72.8508 73.7937 77.5342 63.6187 83.2555 63.8904C88.9767 64.1622 93.5693 74.7777 93.5294 83.919Z" fill="url(#paint1_linear_673_20322)"/>
</g>
<defs>
<linearGradient id="paint0_linear_673_20322" x1="48.8866" y1="74.4728" x2="50.4635" y2="107.004" gradientUnits="userSpaceOnUse">
<stop stop-color="#282725"/>
<stop offset="1" stop-color="#282725"/>
</linearGradient>
<linearGradient id="paint1_linear_673_20322" x1="81.9835" y1="66.0936" x2="80.4384" y2="98.626" gradientUnits="userSpaceOnUse">
<stop stop-color="#282725"/>
<stop offset="1" stop-color="#282725"/>
</linearGradient>
<clipPath id="clip0_673_20322">
<rect width="100" height="100" fill="white" transform="translate(-4 19.5469) rotate(-16.5866)"/>
</clipPath>
</defs>
</svg>
