<svg width="201" height="200" viewBox="0 0 201 200" fill="none" xmlns="http://www.w3.org/2000/svg">
<g clip-path="url(#clip0_675_19880)">
<ellipse cx="137" cy="190.5" rx="19.5" ry="5.5" fill="url(#paint0_linear_675_19880)" fill-opacity="0.3"/>
<path d="M45.7743 124.675C42.0021 137.591 46.7009 144.684 54.888 146.697C63.0751 148.71 71.6502 144.879 75.4224 131.963C79.1945 119.047 76.8472 102.728 68.6601 100.715C60.473 98.7024 49.5464 111.759 45.7743 124.675Z" fill="url(#paint1_linear_675_19880)"/>
<path d="M92.0639 100.906C108.525 100.906 121.869 120.814 121.869 134.272C121.869 136.592 121.472 142.489 120.732 144.615C121.462 148.011 121.869 148.116 121.869 152.071C121.869 167.211 115.921 169.602 108.585 169.602C102.433 169.602 97.2595 167.921 95.7477 158.455C94.5406 158.577 93.3112 158.64 92.0639 158.64C90.5851 158.64 89.1316 158.552 87.7106 158.381C86.2138 167.912 81.0292 169.602 74.862 169.602C67.5251 169.602 61.5774 167.211 61.5774 152.071C61.5774 147.622 62.0914 147.075 63.0028 143.36C62.516 141.613 62.2587 136.14 62.2587 134.272C62.2587 120.814 75.603 100.906 92.0639 100.906Z" fill="#282725"/>
<path d="M155.456 69.7817C155.456 96.7516 126.714 115.743 92.2084 115.743C57.7027 115.743 30.5 96.7516 30.5 69.7817C30.5 42.8117 60.0118 15.2031 94.5174 15.2031C129.023 15.2031 155.456 42.8117 155.456 69.7817Z" fill="#282725"/>
<path d="M70.6748 13.2824C60.7835 8.34216 49.2534 15.9622 49.9207 26.9985L50.5963 38.1728L80.6899 18.2845L70.6748 13.2824Z" fill="#282725"/>
<path d="M115.122 13.2824C125.013 8.34216 136.543 15.9622 135.876 26.9985L135.2 38.1728L105.107 18.2845L115.122 13.2824Z" fill="#282725"/>
<ellipse cx="93.3372" cy="83.2741" rx="16.8763" ry="12.9265" fill="#FFBDBD"/>
<ellipse cx="86.1556" cy="83.1066" rx="3.94976" ry="3.23162" fill="#FF7E7E"/>
<ellipse cx="100.877" cy="83.1066" rx="3.59069" ry="3.23162" fill="#FF7E7E"/>
<ellipse cx="119.312" cy="58.4037" rx="12.9265" ry="14.9493" transform="rotate(-19.3896 119.312 58.4037)" fill="white"/>
<ellipse cx="12.9265" cy="14.9493" rx="12.9265" ry="14.9493" transform="matrix(-0.943283 -0.33199 -0.33199 0.943283 84.2024 48.5938)" fill="white"/>
<ellipse cx="117.836" cy="60.3621" rx="9.53109" ry="11.0225" transform="rotate(-19.3896 117.836 60.3621)" fill="black"/>
<ellipse cx="9.53109" cy="11.0225" rx="9.53109" ry="11.0225" transform="matrix(-0.943283 -0.33199 -0.33199 0.943283 82.3708 52.4102)" fill="black"/>
<circle cx="144.412" cy="170.868" r="20.1976" transform="rotate(30 144.412 170.868)" fill="#FF9D00"/>
<path d="M167.444 157.902C167.46 155.303 162.392 153.661 158.247 153.635C154.101 153.609 150.728 155.695 150.712 158.293C150.696 160.892 154.043 163.019 158.188 163.045C162.333 163.071 167.428 160.5 167.444 157.902Z" fill="#54A16E"/>
<mask id="mask0_675_19880" style="mask-type:alpha" maskUnits="userSpaceOnUse" x="132" y="147" width="18" height="17">
<circle cx="141.016" cy="155.2" r="8.07906" transform="rotate(30 141.016 155.2)" fill="#D9D9D9"/>
</mask>
<g mask="url(#mask0_675_19880)">
<circle cx="144.406" cy="170.872" r="20.1976" transform="rotate(30 144.406 170.872)" fill="#FFBA4B"/>
</g>
<path d="M140.705 122.916C145.857 135.346 141.956 142.907 134.035 145.797C126.115 148.686 117.175 145.809 112.023 133.379C106.872 120.948 107.434 104.47 115.355 101.581C123.275 98.6918 135.554 110.485 140.705 122.916Z" fill="url(#paint2_linear_675_19880)"/>
<mask id="mask1_675_19880" style="mask-type:alpha" maskUnits="userSpaceOnUse" x="105" y="37" width="32" height="23">
<ellipse cx="120.681" cy="48.2167" rx="15.881" ry="10.7197" transform="rotate(14.6804 120.681 48.2167)" fill="#D9D9D9"/>
</mask>
<g mask="url(#mask1_675_19880)">
<ellipse cx="119.128" cy="58.8998" rx="12.9265" ry="14.9493" transform="rotate(-19.3896 119.128 58.8998)" fill="white"/>
</g>
<mask id="mask2_675_19880" style="mask-type:alpha" maskUnits="userSpaceOnUse" x="50" y="37" width="32" height="23">
<ellipse cx="15.881" cy="10.7197" rx="15.881" ry="10.7197" transform="matrix(-0.967355 0.253427 0.253427 0.967355 78.5374 33.8223)" fill="#D9D9D9"/>
</mask>
<g mask="url(#mask2_675_19880)">
<ellipse cx="12.9265" cy="14.9493" rx="12.9265" ry="14.9493" transform="matrix(-0.943283 -0.33199 -0.33199 0.943283 84.6006 49.0898)" fill="white"/>
</g>
<path d="M124.5 85.2609C124.5 86.2214 123.381 88 122 88C120.619 88 119.5 86.2214 119.5 85.2609C119.5 84.3004 120.619 79 122 79C123.381 79 124.5 84.3004 124.5 85.2609Z" fill="white"/>
</g>
<defs>
<linearGradient id="paint0_linear_675_19880" x1="145.5" y1="190.5" x2="117.5" y2="190.5" gradientUnits="userSpaceOnUse">
<stop stop-color="#737373"/>
<stop offset="0.55" stop-color="#A0A0A0" stop-opacity="0.56149"/>
<stop offset="1" stop-color="#D9D9D9" stop-opacity="0"/>
</linearGradient>
<linearGradient id="paint1_linear_675_19880" x1="68.6601" y1="100.715" x2="57.2154" y2="147.269" gradientUnits="userSpaceOnUse">
<stop stop-color="#282725"/>
<stop offset="1" stop-color="#282725"/>
</linearGradient>
<linearGradient id="paint2_linear_675_19880" x1="115.355" y1="101.581" x2="131.784" y2="146.618" gradientUnits="userSpaceOnUse">
<stop stop-color="#282725"/>
<stop offset="1" stop-color="#282725"/>
</linearGradient>
<clipPath id="clip0_675_19880">
<rect width="200" height="200" fill="white" transform="translate(0.5)"/>
</clipPath>
</defs>
</svg>
