<svg width="27" height="27" viewBox="0 0 27 27" fill="none" xmlns="http://www.w3.org/2000/svg">
<path fill-rule="evenodd" clip-rule="evenodd" d="M15.1999 1.28281C13.9683 0.46172 12.3637 0.46172 11.1321 1.28281L1.79878 7.50503C0.77872 8.18507 0.166016 9.32992 0.166016 10.5559V22.4621C0.166016 24.4871 1.80764 26.1287 3.83268 26.1287H9.16602C9.7183 26.1287 10.166 25.681 10.166 25.1287V18.4621C10.166 17.5416 10.9122 16.7954 11.8327 16.7954H14.4993C15.4198 16.7954 16.166 17.5416 16.166 18.4621V25.1287C16.166 25.681 16.6137 26.1287 17.166 26.1287H22.4993C24.5244 26.1287 26.166 24.4871 26.166 22.4621V10.5559C26.166 9.32992 25.5533 8.18507 24.5332 7.50503L15.1999 1.28281Z" fill="#B7B7B7"/>
</svg>
