<svg width="33" height="32" viewBox="0 0 33 32" fill="none" xmlns="http://www.w3.org/2000/svg">
<path fill-rule="evenodd" clip-rule="evenodd" d="M18.1999 3.28256C16.9683 2.46148 15.3637 2.46148 14.1321 3.28256L4.79878 9.50479C3.77872 10.1848 3.16602 11.3297 3.16602 12.5556V24.4618C3.16602 26.4869 4.80764 28.1285 6.83268 28.1285H12.166C12.7183 28.1285 13.166 27.6808 13.166 27.1285V20.4618C13.166 19.5413 13.9122 18.7951 14.8327 18.7951H17.4993C18.4198 18.7951 19.166 19.5413 19.166 20.4618V27.1285C19.166 27.6808 19.6137 28.1285 20.166 28.1285H25.4993C27.5244 28.1285 29.166 26.4869 29.166 24.4618V12.5556C29.166 11.3297 28.5533 10.1848 27.5332 9.50479L18.1999 3.28256Z" fill="#FF8B4C"/>
</svg>
