<svg width="32" height="32" viewBox="0 0 32 32" fill="none" xmlns="http://www.w3.org/2000/svg">
<path d="M28.3999 21.425V10.5752C28.3999 9.07936 27.1874 7.86682 25.6922 7.86682H6.70771C5.21186 7.86682 4 9.07936 4 10.5752V21.4257C4 22.9216 5.21254 24.1341 6.70771 24.1341H25.6915C27.1874 24.1341 28.3992 22.9216 28.3992 21.4257L28.3999 21.425ZM19.662 18.2558C18.3878 20.1244 15.8035 20.6293 13.8914 19.3836C11.9794 18.1378 11.463 15.6131 12.7379 13.7445C12.7223 13.7662 12.7081 13.7885 12.6938 13.8102C12.7081 13.7879 12.723 13.7662 12.7379 13.7445C14.0121 11.8759 16.5964 11.3709 18.5085 12.616C20.4205 13.8617 20.9369 16.3865 19.662 18.2558Z" fill="#E3E7EA"/>
<path d="M20.817 10.549L21.875 12.0997L21.2982 12.4759L20.2402 10.9244L20.817 10.549Z" fill="black"/>
<path d="M22.0651 12.3813L23.1231 13.9321L22.5463 14.3083L21.4883 12.7575L22.0651 12.3813Z" fill="black"/>
<path d="M21.6823 9.98486L23.9901 13.369L23.4133 13.7445L21.1055 10.361L21.6823 9.98486Z" fill="black"/>
<path d="M22.5475 9.4209L23.6055 10.9716L23.0287 11.3471L21.9707 9.79706L22.5475 9.4209Z" fill="black"/>
<path d="M23.7975 11.2535L24.8548 12.8043L24.278 13.1805L23.2207 11.6297L23.7975 11.2535Z" fill="black"/>
<path d="M9.85218 17.6915L12.16 21.0757L11.5832 21.4511L9.27539 18.0677L9.85218 17.6915Z" fill="black"/>
<path d="M8.98694 18.2556L10.0443 19.807L9.46749 20.1825L8.41016 18.6318L8.98694 18.2556Z" fill="black"/>
<path d="M10.2369 20.0884L11.2949 21.6391L10.7182 22.0153L9.66016 20.4645L10.2369 20.0884Z" fill="black"/>
<path d="M8.12171 18.8196L10.4295 22.2037L9.85275 22.5799L7.54492 19.1957L8.12171 18.8196Z" fill="black"/>
<path d="M9.27539 13.9324L11.5832 10.549L12.16 10.9251L9.85218 14.3086L9.27539 13.9324Z" fill="black"/>
<path d="M8.41016 13.369L10.718 9.98486L11.2948 10.361L8.98694 13.7445L8.41016 13.369Z" fill="black"/>
<path d="M7.54492 12.8044L9.85275 9.4209L10.4295 9.79706L8.12171 13.1805L7.54492 12.8044Z" fill="black"/>
<path d="M20.2402 21.0759L21.2982 19.5251L21.875 19.9006L20.817 21.4514L20.2402 21.0759Z" fill="black"/>
<path d="M21.4883 19.243L22.5463 17.6915L23.1231 18.0677L22.0651 19.6184L21.4883 19.243Z" fill="black"/>
<path d="M21.1055 21.6391L22.1635 20.0884L22.7403 20.4645L21.6823 22.0153L21.1055 21.6391Z" fill="black"/>
<path d="M22.3555 19.807L23.4135 18.2556L23.9903 18.6318L22.9329 20.1825L22.3555 19.807Z" fill="black"/>
<path d="M21.9707 22.2037L23.0287 20.653L23.6055 21.0284L22.5475 22.5799L21.9707 22.2037Z" fill="black"/>
<path d="M23.2207 20.3703L24.278 18.8196L24.8548 19.1957L23.7975 20.7465L23.2207 20.3703Z" fill="black"/>
<path d="M18.509 12.6166C16.597 11.3708 14.0127 11.8758 12.7385 13.7451C12.1007 14.679 12.3596 15.9417 13.3153 16.5646C14.2716 17.1875 15.5628 16.9347 16.2005 16.0007C16.8377 15.0667 18.1295 14.8139 19.0852 15.4368C20.0415 16.0597 20.2997 17.3217 19.6619 18.2563C20.9368 16.387 20.4211 13.863 18.509 12.6166Z" fill="#C60038"/>
<path d="M19.0852 15.4362C18.1289 14.8134 16.8377 15.0655 16.2006 16.0001C15.5628 16.9341 14.271 17.1869 13.3153 16.5641C12.359 15.9412 12.1008 14.6785 12.7385 13.7445C11.4636 15.6131 11.9801 18.1378 13.8921 19.3836C15.8041 20.6293 18.3885 20.1244 19.6627 18.2558C20.3005 17.3211 20.0416 16.0591 19.0852 15.4362Z" fill="#243679"/>
</svg>
