<svg width="32" height="32" viewBox="0 0 32 32" fill="none" xmlns="http://www.w3.org/2000/svg">
<g clip-path="url(#clip0_282_18627)">
<path d="M15.999 2.65881C18.9996 2.65881 21.8773 3.85153 23.999 5.97327C26.1119 8.08617 27.2988 10.952 27.2988 13.9401C27.2987 16.9279 26.1117 19.7931 23.999 21.9059L16.9189 29.0133C16.7951 29.1381 16.6477 29.2377 16.4854 29.3053C16.3229 29.3729 16.1486 29.4078 15.9727 29.4078C15.7967 29.4078 15.6224 29.3729 15.46 29.3053C15.2976 29.2377 15.1502 29.1381 15.0264 29.0133L7.99902 21.9733C5.87735 19.8516 4.68561 16.9738 4.68555 13.9733C4.68555 10.9728 5.87744 8.09497 7.99902 5.97327C10.1207 3.85159 12.9985 2.65887 15.999 2.65881ZM16 7.99963C13.0545 7.99963 10.666 10.3881 10.666 13.3336C10.6662 16.2789 13.0546 18.6666 16 18.6666C18.9452 18.6664 21.3328 16.2788 21.333 13.3336C21.333 10.3883 18.9453 7.9999 16 7.99963Z" fill="#FF8B4C"/>
</g>
<defs>
<clipPath id="clip0_282_18627">
<rect width="32" height="32" fill="white"/>
</clipPath>
</defs>
</svg>
