<svg width="161" height="160" viewBox="0 0 161 160" fill="none" xmlns="http://www.w3.org/2000/svg">
<g clip-path="url(#clip0_1134_25955)">
<path d="M63.4522 47.177C67.5242 53.2213 72.9098 58.8541 78.5799 61.5493C85.3282 64.7569 94.4942 65.2693 102.285 64.1075C106.22 63.5207 109.979 62.4824 113.062 61.0228C114.157 60.5045 115.224 59.9033 116.203 59.2142C124.145 67.5029 129.236 78.5934 129.799 90.9622C131.032 118.072 110.055 141.049 82.9445 142.282C55.8345 143.515 32.8581 122.538 31.6246 95.428C30.6317 73.5994 44.039 54.4534 63.4522 47.177Z" fill="#FF9D00"/>
<mask id="mask0_1134_25955" style="mask-type:alpha" maskUnits="userSpaceOnUse" x="33" y="46" width="40" height="40">
<circle cx="53.2312" cy="65.853" r="19.6552" transform="rotate(-2.60455 53.2312 65.853)" fill="#D9D9D9"/>
</mask>
<g mask="url(#mask0_1134_25955)">
<circle cx="80.7246" cy="93.5288" r="49.1381" transform="rotate(-2.60455 80.7246 93.5288)" fill="#FFBA4B"/>
</g>
<path d="M87.7042 13.3425C84.2477 15.5592 86.4373 23.6888 89.9733 29.2025C93.5094 34.7162 99.1779 37.3889 102.634 35.1722C106.091 32.9555 106.026 26.6888 102.49 21.1751C98.9542 15.6614 91.1606 11.1258 87.7042 13.3425Z" fill="#54A16E"/>
<path d="M120.919 50.6586C124.743 42.6131 104.896 42.4124 92.0619 36.3119C79.2279 30.2115 61.8179 11.9452 57.9936 19.9907C54.1693 28.0362 67.0134 51.2641 79.8474 57.3645C92.6814 63.465 117.095 58.7041 120.919 50.6586Z" fill="#54A16E"/>
</g>
<defs>
<clipPath id="clip0_1134_25955">
<rect width="160" height="160" fill="white" transform="translate(0.5)"/>
</clipPath>
</defs>
</svg>
