<svg width="12" height="14" viewBox="0 0 12 14" fill="none" xmlns="http://www.w3.org/2000/svg">
<path d="M2.97578 1.1584C3.23325 0.5331 3.84263 0.125 4.51886 0.125C5.4405 0.125 6.18764 0.872141 6.18764 1.79379V4.82378L8.41717 4.82378C8.84697 4.82377 9.20944 4.82376 9.5033 4.84922C9.80912 4.87571 10.1073 4.93379 10.3824 5.09174C10.792 5.32688 11.1062 5.6982 11.2703 6.14108C11.3806 6.43857 11.3885 6.74221 11.364 7.0482C11.3405 7.34223 11.2805 7.69969 11.2094 8.12358L10.6639 11.3742C10.6117 11.6858 10.5668 11.9533 10.5127 12.1726C10.4555 12.4046 10.3783 12.6266 10.2399 12.8345C10.0289 13.1512 9.73269 13.4018 9.38542 13.5575C9.15747 13.6597 8.92582 13.699 8.68752 13.7171C8.46231 13.7341 8.19102 13.7341 7.87506 13.7341H0.966797V6.03738L2.97578 1.1584Z" fill="#B7B7B7"/>
</svg>
