<svg width="32" height="32" viewBox="0 0 32 32" fill="none" xmlns="http://www.w3.org/2000/svg">
<path fill-rule="evenodd" clip-rule="evenodd" d="M21.6184 3.39258C21.2552 3.0293 20.6662 3.0293 20.3029 3.39258L5.41916 18.2763C5.29994 18.3955 5.21537 18.5449 5.17448 18.7085L3.93417 23.6697C3.85492 23.9867 3.9478 24.322 4.17885 24.5531C4.4099 24.7841 4.74524 24.877 5.06224 24.7978L10.0235 23.5575C10.187 23.5166 10.3364 23.432 10.4556 23.3128L25.3394 8.42905C25.7026 8.06577 25.7026 7.47678 25.3394 7.11351L21.6184 3.39258Z" fill="#B7B7B7"/>
<path fill-rule="evenodd" clip-rule="evenodd" d="M2.66614 27.6163C2.66614 27.1025 3.08262 26.686 3.59637 26.686H28.4026C28.9163 26.686 29.3328 27.1025 29.3328 27.6163C29.3328 28.13 28.9163 28.5465 28.4026 28.5465H3.59637C3.08262 28.5465 2.66614 28.13 2.66614 27.6163Z" fill="#F0F0F0"/>
</svg>
