<svg width="24" height="24" viewBox="0 0 24 24" fill="none" xmlns="http://www.w3.org/2000/svg">
<g clip-path="url(#clip0_669_22557)">
<path d="M19.7965 11.9991C19.7965 11.9955 19.7965 11.9925 19.7965 11.9889C19.7953 11.3337 20.0131 10.6971 20.4685 10.2255L21.5449 9.11192C21.8383 8.80892 21.8947 8.34812 21.6841 7.98272L20.3203 5.62052C20.1097 5.25512 19.6819 5.07392 19.2727 5.17592L17.8609 5.52872C17.1937 5.69552 16.4875 5.59472 15.8929 5.24852L15.8755 5.23832C15.2911 4.89812 14.8609 4.34492 14.6749 3.69452L14.2723 2.28872C14.1565 1.88312 13.7857 1.60352 13.3639 1.60352H10.6363C10.2145 1.60352 9.84365 1.88312 9.72785 2.28872L9.29825 3.78932C9.12785 4.38392 8.73605 4.89152 8.19785 5.19632C8.14265 5.22752 8.08745 5.25992 8.03345 5.29232C7.49525 5.61452 6.85145 5.70692 6.24305 5.55452L4.72685 5.17592C4.31765 5.07392 3.89045 5.25512 3.67925 5.62052L2.31545 7.98272C2.10485 8.34812 2.16125 8.80892 2.45465 9.11192L3.53105 10.2255C3.98645 10.6971 4.20485 11.3331 4.20365 11.9889C4.20365 11.9925 4.20365 11.9961 4.20365 11.9991C4.20365 12.0027 4.20365 12.0057 4.20365 12.0093C4.20485 12.6651 3.98645 13.3011 3.53105 13.7727L2.45465 14.8863C2.16125 15.1893 2.10485 15.6501 2.31545 16.0155L3.67925 18.3777C3.88985 18.7431 4.31765 18.9243 4.72685 18.8223L6.24245 18.4437C6.85085 18.2919 7.49465 18.3837 8.03285 18.7059C8.08745 18.7389 8.14265 18.7707 8.19785 18.8019C8.73605 19.1067 9.12785 19.6143 9.29825 20.2089L9.72785 21.7095C9.84365 22.1151 10.2145 22.3947 10.6363 22.3947H13.3639C13.7857 22.3947 14.1565 22.1151 14.2723 21.7095L14.7019 20.2089C14.8723 19.6143 15.2641 19.1067 15.8023 18.8019C15.8575 18.7707 15.9127 18.7383 15.9673 18.7059C16.5055 18.3837 17.1493 18.2913 17.7577 18.4437L19.2733 18.8223C19.6825 18.9243 20.1097 18.7431 20.3209 18.3777L21.6847 16.0155C21.8953 15.6501 21.8389 15.1893 21.5455 14.8863L20.4691 13.7727C20.0137 13.3017 19.7959 12.6651 19.7971 12.0093C19.7971 12.0057 19.7965 12.0027 19.7965 11.9991Z" fill="#818181"/>
<path d="M12 16.3643C14.3315 16.3643 16.2424 14.5266 16.3594 12.2236L16.3652 12C16.3652 9.5934 14.406 7.63477 12 7.63477M12 16.3643V7.63477M12 16.3643L11.7764 16.3584C9.54753 16.2453 7.75478 14.452 7.6416 12.2236L7.63574 12C7.63574 9.59405 9.59406 7.63484 12 7.63477M12 16.3643V7.63477" fill="#D9D9D9" stroke="#8E8E93" stroke-width="30"/>
</g>
<defs>
<clipPath id="clip0_669_22557">
<rect width="24" height="24" fill="white"/>
</clipPath>
</defs>
</svg>
