<svg width="24" height="24" viewBox="0 0 24 24" fill="none" xmlns="http://www.w3.org/2000/svg">
<g clip-path="url(#clip0_1410_9933)">
<path d="M8.37967 11.8179C10.1934 11.8179 11.6636 10.3476 11.6636 8.53396C11.6636 6.72028 10.1934 5.25 8.37967 5.25C6.56598 5.25 5.0957 6.72028 5.0957 8.53396C5.0957 10.3476 6.56598 11.8179 8.37967 11.8179Z" fill="#FACA70"/>
<path d="M8.38049 12.8223C3.96708 12.8223 2.25 15.8316 2.25 17.2315C2.25 18.6313 5.90447 19.0039 8.38049 19.0039C10.8565 19.0039 14.511 18.6313 14.511 17.2315C14.511 15.8316 12.7944 12.8223 8.38049 12.8223Z" fill="#FACA70"/>
<path d="M15.6199 11.8179C17.4336 11.8179 18.9039 10.3476 18.9039 8.53396C18.9039 6.72028 17.4336 5.25 15.6199 5.25C13.8062 5.25 12.3359 6.72028 12.3359 8.53396C12.3359 10.3476 13.8062 11.8179 15.6199 11.8179Z" fill="#FF8B4C"/>
<path d="M15.6197 12.8223C11.2063 12.8223 9.48926 15.8316 9.48926 17.2315C9.48926 18.6313 13.1437 19.0039 15.6197 19.0039C18.0958 19.0039 21.7502 18.6313 21.7502 17.2315C21.7502 15.8316 20.0337 12.8223 15.6197 12.8223Z" fill="#FF8B4C"/>
</g>
<defs>
<clipPath id="clip0_1410_9933">
<rect width="24" height="24" fill="white"/>
</clipPath>
</defs>
</svg>
