<svg width="33" height="32" viewBox="0 0 33 32" fill="none" xmlns="http://www.w3.org/2000/svg">
<g clip-path="url(#clip0_1308_26427)">
<g clip-path="url(#clip1_1308_26427)">
<path d="M11.6735 15.7572C14.0918 15.7572 16.0522 13.7969 16.0522 11.3786C16.0522 8.96037 14.0918 7 11.6735 7C9.2553 7 7.29492 8.96037 7.29492 11.3786C7.29492 13.7969 9.2553 15.7572 11.6735 15.7572Z" fill="#D9D9D9"/>
<path d="M11.674 17.0966C5.78945 17.0966 3.5 21.1091 3.5 22.9755C3.5 24.8419 8.37263 25.3387 11.674 25.3387C14.9753 25.3387 19.848 24.8419 19.848 22.9755C19.848 21.1091 17.5592 17.0966 11.674 17.0966Z" fill="#D9D9D9"/>
<path d="M21.3256 15.7572C23.7439 15.7572 25.7043 13.7969 25.7043 11.3786C25.7043 8.96037 23.7439 7 21.3256 7C18.9074 7 16.947 8.96037 16.947 11.3786C16.947 13.7969 18.9074 15.7572 21.3256 15.7572Z" fill="#B7B7B7"/>
<path d="M21.3258 17.0966C15.4413 17.0966 13.1519 21.1091 13.1519 22.9755C13.1519 24.8419 18.0245 25.3387 21.3258 25.3387C24.6272 25.3387 29.4998 24.8419 29.4998 22.9755C29.4998 21.1091 27.2111 17.0966 21.3258 17.0966Z" fill="#B7B7B7"/>
</g>
</g>
<defs>
<clipPath id="clip0_1308_26427">
<rect width="32" height="32" fill="white" transform="translate(0.5)"/>
</clipPath>
<clipPath id="clip1_1308_26427">
<rect width="32" height="32" fill="white" transform="translate(0.5)"/>
</clipPath>
</defs>
</svg>
