<svg width="140" height="140" viewBox="0 0 140 140" fill="none" xmlns="http://www.w3.org/2000/svg">
<path d="M32.1735 81.5447L34.2513 86.4708C34.628 87.364 34.7809 88.2143 34.7098 89.0219C34.6443 89.8271 34.3719 90.5366 33.8924 91.1505C33.4153 91.77 32.769 92.2517 31.9536 92.5956C31.127 92.9443 30.327 93.0694 29.5536 92.9708C28.7825 92.8779 28.0823 92.5655 27.4529 92.0338C26.8314 91.5053 26.3287 90.7862 25.945 89.8764L25.0956 87.8627L21.3178 89.4562L20.1245 86.627L32.1735 81.5447ZM27.9741 88.4128C28.2447 89.0698 28.624 89.5044 29.1122 89.7167C29.6003 89.929 30.1356 89.9123 30.7181 89.6666C31.2895 89.4256 31.6639 89.0586 31.8415 88.5655C32.0269 88.0756 31.9804 87.5006 31.7019 86.8404L31.0702 85.3426L27.3423 86.915L27.9741 88.4128ZM24.7009 96.7025L37.7957 92.312L40.2695 95.559L32.5492 107.004L30.5461 104.375L32.2367 101.974L29.4783 98.3535L26.715 99.3461L24.7009 96.7025ZM33.6557 99.962L36.4936 95.9379L36.428 95.8517L31.7948 97.5196L33.6557 99.962ZM45.7444 105.753C46.0018 105.344 46.0713 104.928 45.9531 104.506C45.8348 104.084 45.5286 103.685 45.0344 103.311C44.5449 102.94 44.098 102.752 43.6934 102.748C43.2888 102.743 42.9683 102.897 42.7319 103.209C42.5064 103.506 42.4584 103.844 42.5877 104.221C42.7218 104.603 42.999 105.039 43.4191 105.532L44.1623 106.435C45.0182 107.439 45.5208 108.405 45.6702 109.334C45.8281 110.262 45.6003 111.136 44.9868 111.955C44.4922 112.608 43.8993 113.046 43.2082 113.27C42.5219 113.498 41.7728 113.504 40.9611 113.289C40.1494 113.075 39.3141 112.642 38.4553 111.991C37.5808 111.32 36.9222 110.61 36.4792 109.858C36.0411 109.111 35.8464 108.336 35.895 107.534C35.9484 106.736 36.2644 105.941 36.8428 105.148L39.2034 106.937C38.8576 107.453 38.7551 107.972 38.8957 108.494C39.0448 109.015 39.4048 109.492 39.9758 109.925C40.4892 110.314 40.9686 110.519 41.414 110.539C41.8679 110.558 42.2287 110.401 42.4966 110.068C42.7172 109.767 42.7605 109.425 42.6264 109.044C42.4923 108.663 42.181 108.182 41.6927 107.6L40.7951 106.512C39.2081 104.599 38.9711 102.908 40.0839 101.44C40.564 100.806 41.1623 100.376 41.8787 100.148C42.5951 99.9208 43.3622 99.9054 44.1801 100.102C45.0027 100.303 45.805 100.699 46.5871 101.292C47.3788 101.892 47.9685 102.554 48.3562 103.279C48.7523 104.002 48.928 104.732 48.8833 105.469C48.8434 106.209 48.584 106.9 48.1051 107.542L45.7444 105.753ZM55.5521 110.741C55.6977 110.28 55.66 109.861 55.439 109.482C55.2179 109.104 54.821 108.796 54.2482 108.558C53.6809 108.323 53.201 108.254 52.8084 108.352C52.4159 108.45 52.1446 108.679 51.9946 109.041C51.8516 109.386 51.8904 109.724 52.1109 110.057C52.3369 110.392 52.7154 110.745 53.2463 111.115L54.1935 111.801C55.2752 112.556 56.0057 113.364 56.385 114.225C56.7721 115.083 56.7724 115.986 56.3858 116.934C56.072 117.69 55.6091 118.264 54.997 118.656C54.3905 119.049 53.6674 119.245 52.8277 119.242C51.988 119.239 51.0705 119.031 50.075 118.618C49.0596 118.191 48.2428 117.669 47.6244 117.054C47.0117 116.441 46.6276 115.741 46.4721 114.953C46.3222 114.167 46.4269 113.318 46.7862 112.404L49.5224 113.539C49.3181 114.126 49.35 114.654 49.618 115.124C49.8938 115.59 50.3626 115.961 51.0244 116.235C51.6194 116.482 52.135 116.559 52.5711 116.466C53.0151 116.37 53.3246 116.127 53.4995 115.737C53.637 115.39 53.5927 115.049 53.3666 114.714C53.1405 114.379 52.7178 113.992 52.0983 113.552L50.9549 112.726C48.9362 111.276 48.2797 109.7 48.9856 107.998C49.2902 107.264 49.7603 106.696 50.396 106.295C51.0317 105.894 51.77 105.685 52.6111 105.669C53.4577 105.655 54.3342 105.836 55.2407 106.213C56.1583 106.593 56.8961 107.085 57.4542 107.688C58.0202 108.288 58.3746 108.95 58.5175 109.674C58.6659 110.4 58.5895 111.134 58.2882 111.876L55.5521 110.741ZM59.883 108.287L68.8376 109.591L68.4758 112.075L62.5596 111.214L62.1614 113.948L67.6128 114.742L67.251 117.227L61.7996 116.433L61.3987 119.185L67.3327 120.049L66.9709 122.534L57.9984 121.227L59.883 108.287ZM70.5951 122.572L69.0425 109.587L73.7951 109.019C75.1103 108.862 76.2802 108.986 77.3049 109.391C78.3288 109.79 79.1561 110.446 79.7868 111.359C80.4174 112.272 80.8131 113.401 80.974 114.746C81.1341 116.085 81.0154 117.272 80.6178 118.308C80.2202 119.344 79.5712 120.18 78.6709 120.815C77.7707 121.45 76.6629 121.846 75.3477 122.004L70.5951 122.572ZM74.927 119.398C76.0755 119.267 76.9003 118.862 77.4013 118.184C77.9023 117.505 78.0709 116.481 77.9072 115.112C77.7428 113.737 77.3345 112.783 76.6825 112.248C76.0357 111.707 75.129 111.503 73.9626 111.637L72.4023 111.823L73.3309 119.589L74.927 119.398ZM102.642 48.285L99.2731 44.1339C98.6623 43.3813 98.2783 42.6073 98.1213 41.812C97.9596 41.0205 98.0233 40.2631 98.3125 39.5398C98.5979 38.8119 99.0842 38.1691 99.7714 37.6113C100.468 37.046 101.201 36.7027 101.971 36.5816C102.738 36.4558 103.497 36.5605 104.25 36.8955C104.994 37.2297 105.678 37.7801 106.3 38.5468L107.677 40.2436L110.861 37.6597L112.796 40.0438L102.642 48.285ZM104.76 40.5182C104.317 39.9628 103.831 39.6512 103.303 39.5835C102.775 39.5158 102.266 39.6811 101.775 40.0795C101.293 40.4703 101.036 40.9272 101.003 41.4503C100.962 41.9724 101.167 42.5117 101.618 43.0679L102.643 44.3301L105.784 41.7803L104.76 40.5182ZM105.587 31.6424L94.2428 39.5203L90.9596 37.0947L95.1706 23.9472L97.8292 25.9113L96.8775 28.6889L100.538 31.3935L102.914 29.6676L105.587 31.6424ZM96.0779 31.0176L94.4787 35.6748L94.5659 35.7392L98.5476 32.8421L96.0779 31.0176ZM82.8512 28.8341C82.7184 29.299 82.7677 29.7176 82.9991 30.0898C83.2305 30.4621 83.6358 30.7591 84.2149 30.9808C84.7885 31.2003 85.2701 31.2558 85.6598 31.1471C86.0495 31.0384 86.3144 30.8013 86.4543 30.4359C86.5877 30.0873 86.5397 29.7497 86.31 29.4233C86.0748 29.0947 85.6867 28.7528 85.1459 28.3974L84.18 27.7376C83.0779 27.0127 82.3254 26.225 81.9225 25.3745C81.5118 24.5274 81.4866 23.6249 81.8469 22.6669C82.1397 21.9022 82.5866 21.3158 83.1877 20.9077C83.7831 20.4974 84.5005 20.2821 85.34 20.2617C86.1794 20.2414 87.1023 20.4239 88.1088 20.8092C89.1356 21.2087 89.9666 21.7073 90.6016 22.305C91.2311 22.9005 91.6344 23.59 91.8115 24.3734C91.9831 25.1547 91.9018 26.0068 91.5678 26.9298L88.8014 25.8707C88.9894 25.2787 88.943 24.7516 88.6622 24.2895C88.3735 23.8309 87.8947 23.4735 87.2256 23.2174C86.6239 22.9871 86.1064 22.9243 85.673 23.0292C85.2319 23.1375 84.9292 23.3891 84.7652 23.7841C84.6373 24.1348 84.691 24.4745 84.9263 24.8031C85.1615 25.1317 85.5948 25.507 86.2261 25.9292L87.3919 26.7236C89.4499 28.1175 90.1496 29.6747 89.4909 31.3953C89.2068 32.1375 88.7525 32.7178 88.1281 33.1364C87.5037 33.5549 86.7714 33.7839 85.9311 33.8232C85.0853 33.8604 84.2041 33.7036 83.2876 33.3528C82.3598 32.9976 81.6086 32.5263 81.0341 31.9389C80.4518 31.355 80.0793 30.703 79.9165 29.9831C79.748 29.2611 79.8042 28.5251 80.0848 27.7751L82.8512 28.8341ZM72.0473 26.8146C72.0381 27.298 72.193 27.6899 72.5121 27.9904C72.8313 28.2909 73.2991 28.474 73.9158 28.5399C74.5264 28.605 75.0061 28.5351 75.355 28.3302C75.7038 28.1252 75.899 27.8282 75.9406 27.439C75.9802 27.0679 75.8472 26.754 75.5416 26.4973C75.2299 26.24 74.7672 26.009 74.1533 25.8042L73.0506 25.414C71.7994 24.9958 70.8701 24.4274 70.2627 23.7086C69.6486 22.9952 69.3928 22.1293 69.4955 21.1109C69.5824 20.2967 69.864 19.6153 70.3404 19.0667C70.8107 18.5175 71.449 18.1255 72.2552 17.8906C73.0613 17.6558 74.0002 17.5955 75.0718 17.7099C76.1667 17.8329 77.0977 18.1018 77.8648 18.5167C78.6259 18.9309 79.1925 19.494 79.5645 20.2058C79.9306 20.917 80.0706 21.7614 79.9844 22.7392L77.0389 22.4248C77.0688 21.8043 76.8888 21.3067 76.4989 20.9321C76.1024 20.5628 75.5479 20.3401 74.8355 20.2641C74.1949 20.1957 73.6786 20.2677 73.2866 20.4802C72.8879 20.698 72.6599 21.0188 72.6026 21.4426C72.5689 21.8144 72.7079 22.1289 73.0195 22.3862C73.3312 22.6435 73.8462 22.8953 74.5647 23.1415L75.8951 23.6105C78.2417 24.4302 79.3172 25.756 79.1217 27.5879C79.0373 28.3781 78.747 29.0556 78.2508 29.6202C77.7546 30.1848 77.1054 30.5939 76.3033 30.8473C75.4952 31.1001 74.6033 31.1745 73.6275 31.0703C72.6397 30.9649 71.7928 30.7019 71.0869 30.2814C70.3743 29.8663 69.8471 29.3317 69.5052 28.6776C69.1573 28.0228 69.0228 27.297 69.1019 26.5001L72.0473 26.8146ZM68.5898 30.3944L59.6324 31.6792L59.2759 29.1939L65.1939 28.3452L64.8016 25.6097L59.3484 26.3918L58.992 23.9066L64.4451 23.1245L64.0502 20.3711L58.1144 21.2224L57.7579 18.7372L66.7333 17.4499L68.5898 30.3944ZM54.2709 19.7265L59.4341 31.741L55.0365 33.6309C53.8196 34.1539 52.6624 34.3661 51.565 34.2676C50.47 34.1746 49.4909 33.7795 48.6277 33.0823C47.7645 32.3851 47.0655 31.4142 46.5306 30.1696C45.9981 28.9306 45.776 27.758 45.8642 26.6519C45.9525 25.5458 46.3385 24.5608 47.0222 23.6968C47.706 22.8329 48.6563 22.1394 49.8733 21.6164L54.2709 19.7265ZM51.0141 23.9964C49.9496 24.4473 49.2731 25.069 48.9846 25.8614C48.696 26.6538 48.8239 27.6834 49.3683 28.9501C49.9151 30.2224 50.5768 31.0226 51.3534 31.3507C52.1269 31.6867 53.0542 31.6257 54.1352 31.1676L55.5789 30.5472L52.491 23.3617L51.0141 23.9964Z" fill="white" fill-opacity="0.6"/>
<ellipse cx="69.9998" cy="70.1267" rx="62.4227" ry="62.0374" fill="white" fill-opacity="0.1" stroke="white" stroke-opacity="0.8"/>
<rect x="39.1738" y="39.686" width="61.652" height="61.652" rx="30.826" fill="white" fill-opacity="0.6"/>
<rect x="39.1738" y="39.686" width="61.652" height="61.652" rx="30.826" stroke="white" stroke-width="0.513767"/>
<path d="M78.5239 51.0867C82.3316 49.185 86.7699 52.1187 86.5132 56.367L86.4341 57.6609C91.1538 61.6887 94.0513 67.2974 94.0513 72.8367C94.0513 83.2188 82.9866 90.5291 69.7036 90.5291C56.4206 90.5291 45.9487 83.2189 45.9487 72.8367C45.9487 67.5513 48.8933 62.2025 53.5366 58.2244L53.4253 56.367C53.1686 52.1186 57.6069 49.185 61.4146 51.0867L64.4282 52.5926C66.4087 52.097 68.476 51.827 70.5923 51.8269C72.4221 51.8269 74.1929 52.0292 75.8862 52.4041L78.5239 51.0867Z" fill="#272727"/>
<ellipse cx="70.138" cy="78.6411" rx="6.49656" ry="4.97608" fill="#D1D1D1"/>
<ellipse cx="67.3735" cy="78.641" rx="1.52047" ry="1.24402" fill="#A5A5A5"/>
<ellipse cx="73.0407" cy="78.641" rx="1.38225" ry="1.24402" fill="#A5A5A5"/>
<ellipse cx="4.97608" cy="5.75476" rx="4.97608" ry="5.75476" transform="matrix(-0.943283 -0.33199 -0.33199 0.943283 66.6217 64.6802)" fill="white"/>
<ellipse cx="3.66902" cy="4.24316" rx="3.66902" ry="4.24316" transform="matrix(-0.943283 -0.33199 -0.33199 0.943283 65.9169 66.1499)" fill="#272727"/>
<ellipse cx="80.1373" cy="68.4565" rx="4.97608" ry="5.75476" transform="rotate(-19.3896 80.1373 68.4565)" fill="white"/>
<ellipse cx="79.5692" cy="69.2102" rx="3.66902" ry="4.24316" transform="rotate(-19.3896 79.5692 69.2102)" fill="#272727"/>
</svg>
