<svg width="100" height="100" viewBox="0 0 100 100" fill="none" xmlns="http://www.w3.org/2000/svg">
<path d="M14.4491 56.5018C12.1727 55.8918 10.954 53.4141 11.8591 51.2391L23.7485 22.6901C24.7388 20.3141 27.9929 20.0242 29.3878 22.1865C40.7725 39.8475 55.3875 28.5778 55.3875 28.5778L83.5307 64.5876C86.5548 68.4557 87.4225 73.5882 85.8412 78.2368L85.8174 78.3088L14.4491 56.5018Z" fill="#FFF2C0"/>
<path d="M53.4647 45.6277C54.6714 47.415 57.0997 47.8843 58.887 46.6777L65.816 41.9957L61.0841 35.8883L54.5126 40.2049C52.7253 41.4115 52.2581 43.8404 53.4647 45.6277Z" fill="#FFC76D"/>
<path d="M63.1101 54.0578C64.3168 55.8451 66.7451 56.3145 68.5324 55.1078L73.4879 51.7595L68.6673 45.5902L64.1601 48.6355C62.3728 49.8422 61.9035 52.2705 63.1101 54.0578Z" fill="#FFC76D"/>
<path d="M13.4862 61.2399L76.7451 83.7039C80.8386 84.8008 84.8693 82.2388 85.8176 78.307L12.0195 50.9489L10.6619 55.498C9.67214 57.872 11.0008 60.5739 13.4862 61.2399Z" fill="#FFC76D"/>
<path d="M17.376 38.0848C17.376 38.0848 27.9119 45.5303 26.6183 56.3648L12.0185 50.953L17.3775 38.0874L17.376 38.0848Z" fill="#FFC76D"/>
</svg>
