<svg width="27" height="26" viewBox="0 0 27 26" fill="none" xmlns="http://www.w3.org/2000/svg">
<path d="M3.90074 25.1664H23.0983C23.9911 25.1664 24.7151 24.4424 24.7151 23.5496V10.6152H2.28394V23.5496C2.28394 24.4424 3.00794 25.1664 3.90074 25.1664Z" fill="#FFD689"/>
<path d="M17.7528 10.6152H9.24805V25.1664H17.7528V10.6152Z" fill="#FFD689"/>
<path d="M12.8864 20.512H15.4592C16.0336 20.512 16.5 20.9784 16.5 21.5528V25.1664H11.8456V21.5528C11.8456 20.9784 12.312 20.512 12.8864 20.512Z" fill="#FF8B4C"/>
<path fill-rule="evenodd" clip-rule="evenodd" d="M22.5424 0.833618H4.65115C3.79435 0.833618 3.09995 1.52802 3.09995 2.38482L0.699951 10.9184C0.699951 11.7752 1.39435 12.4696 2.25115 12.4696H24.748C25.6048 12.4696 26.2992 11.7752 26.2992 10.9184L23.8992 2.19122C23.8992 1.44162 23.2911 0.833618 22.5415 0.833618H22.5424Z" fill="#FF8B4C"/>
<path d="M12 11H16C16.552 11 17 10.328 17 9.5V3.5C17 2.672 16.552 2 16 2H12C11.448 2 11 2.672 11 3.5V9.5C11 10.328 11.448 11 12 11Z" fill="#FFD689"/>
</svg>
